<?xml version="1.0" standalone="no"?>
<!DOCTYPE svg PUBLIC "-//W3C//DTD SVG 20010904//EN"
 "http://www.w3.org/TR/2001/REC-SVG-20010904/DTD/svg10.dtd">
<svg version="1.0" xmlns="http://www.w3.org/2000/svg"
 width="291.000000pt" height="286.000000pt" viewBox="0 0 291.000000 286.000000"
 preserveAspectRatio="xMidYMid meet">
<metadata>
Created by potrace 1.13, written by Peter Selinger 2001-2015
</metadata>
<g transform="translate(0.000000,286.000000) scale(0.100000,-0.100000)"
fill="#ff0000" stroke="none">
<path d="M20 1435 l0 -1415 1415 0 1415 0 0 1415 0 1415 -1415 0 -1415 0 0
-1415z m2521 393 c30 -14 68 -37 86 -52 71 -60 108 -201 84 -316 -22 -102
-101 -187 -197 -211 l-41 -11 -6 -80 c-3 -44 -8 -82 -12 -86 -10 -10 -139 -14
-153 -4 -10 7 -15 45 -19 129 -7 139 0 153 70 153 60 0 108 28 135 81 20 37
23 55 19 108 -5 67 -21 98 -71 135 -41 31 -161 29 -234 -4 -66 -29 -73 -22
-70 64 3 56 5 61 37 80 90 52 274 59 372 14z m-1763 -66 c9 -10 91 -230 181
-490 135 -389 161 -475 151 -487 -16 -19 -168 -21 -192 -2 -9 6 -31 58 -49
115 l-33 102 -191 0 -192 0 -32 -105 c-22 -73 -38 -108 -51 -115 -30 -16 -161
-8 -172 10 -12 19 314 959 339 978 11 8 53 12 120 12 85 0 106 -3 121 -18z
m984 -11 c67 -26 131 -91 147 -147 31 -112 -6 -222 -92 -274 l-29 -18 35 -11
c53 -18 112 -74 137 -133 18 -42 21 -65 18 -118 -6 -79 -32 -133 -88 -184 -85
-77 -170 -96 -424 -96 -153 0 -182 2 -198 17 -17 15 -18 43 -18 486 0 433 1
472 17 490 17 18 30 19 228 15 187 -4 216 -7 267 -27z m681 -782 c32 -14 47
-49 47 -104 0 -82 -32 -115 -110 -115 -78 0 -110 33 -110 115 0 54 15 90 44
103 28 14 99 15 129 1z"/>
<path d="M583 1398 c-33 -106 -64 -203 -68 -215 l-6 -23 135 0 c75 0 136 3
136 8 0 4 -31 101 -68 215 l-67 208 -62 -193z"/>
<path d="M1450 1495 l0 -135 78 0 c130 0 188 49 179 153 -7 83 -59 117 -182
117 l-75 0 0 -135z"/>
<path d="M1450 1071 l0 -141 102 0 c82 0 110 4 144 20 97 47 98 185 2 237 -24
12 -64 18 -140 21 l-108 4 0 -141z"/>
</g>
</svg>
