<?xml version="1.0" standalone="no"?>
<!DOCTYPE svg PUBLIC "-//W3C//DTD SVG 20010904//EN"
 "http://www.w3.org/TR/2001/REC-SVG-20010904/DTD/svg10.dtd">
<svg version="1.0" xmlns="http://www.w3.org/2000/svg"
 width="286.000000pt" height="286.000000pt" viewBox="0 0 286.000000 286.000000"
 preserveAspectRatio="xMidYMid meet">
<metadata>
Created by potrace 1.13, written by Peter Selinger 2001-2015
</metadata>
<g transform="translate(0.000000,286.000000) scale(0.100000,-0.100000)"
fill="#000000" stroke="none">
<path d="M10 1430 l0 -1420 1420 0 1420 0 0 1420 0 1420 -1420 0 -1420 0 0
-1420z m2810 0 l0 -1390 -1390 0 -1390 0 0 1390 0 1390 1390 0 1390 0 0 -1390z"/>
<path d="M767 2554 l-97 -56 0 -108 0 -108 -67 -38 c-130 -71 -122 -60 -125
-182 l-3 -106 -87 -50 -87 -50 -3 -109 -3 -109 -90 -52 -90 -52 -3 -115 -2
-114 95 -54 95 -53 0 -108 0 -108 88 -49 87 -50 3 -104 c1 -56 7 -109 13 -115
6 -7 49 -34 95 -60 l84 -48 0 -107 0 -107 68 -40 c137 -81 119 -79 215 -22 47
28 90 50 97 50 6 0 42 -17 78 -39 37 -21 76 -43 88 -49 17 -9 35 -3 109 39 48
27 93 49 98 49 5 0 50 -23 98 -51 l89 -50 88 50 c48 28 93 51 100 51 7 0 29
-11 50 -24 20 -13 60 -35 88 -49 l50 -25 97 56 97 56 0 107 0 107 88 49 87 50
10 114 10 113 87 50 87 50 3 109 3 109 90 52 90 52 0 113 0 113 -90 52 -90 52
-5 109 -5 110 -92 54 -93 54 0 107 0 108 -90 51 -90 52 0 108 0 107 -100 57
-99 57 -85 -50 c-47 -28 -91 -50 -100 -50 -8 0 -53 22 -101 50 l-86 50 -85
-50 c-47 -28 -91 -50 -100 -50 -8 0 -53 22 -101 49 l-86 50 -51 -30 c-28 -17
-70 -40 -94 -52 l-43 -22 -37 21 c-20 11 -62 34 -92 52 l-55 31 -98 -55z
m1393 -169 l0 -101 -87 -51 c-99 -58 -85 -59 -205 14 l-58 34 0 104 0 103 86
50 86 49 89 -50 89 -51 0 -101z m-1201 148 l81 -47 0 -102 0 -102 -82 -48
c-46 -26 -87 -47 -93 -47 -6 0 -47 21 -93 47 l-82 48 0 102 0 102 78 46 c42
26 85 47 94 47 9 1 53 -20 97 -46z m371 1 l80 -46 0 -103 0 -104 -67 -39 c-38
-22 -77 -44 -88 -50 -17 -9 -36 -2 -108 40 l-87 51 0 101 0 102 83 47 c45 26
88 47 95 47 7 0 49 -21 92 -46z m375 -2 l80 -47 3 -96 c3 -111 7 -105 -107
-167 l-73 -40 -72 40 c-111 63 -107 57 -104 167 l3 96 80 47 c44 27 87 48 95
48 8 0 51 -21 95 -48z m-936 -318 l82 -47 -3 -105 -3 -106 -83 -49 -82 -48
-90 52 -91 52 3 101 3 100 80 48 c44 26 85 47 91 48 6 0 48 -21 93 -46z m376
-2 l80 -48 3 -101 3 -101 -90 -52 -90 -51 -91 52 -90 53 1 66 c1 126 5 134 89
184 41 25 82 45 90 45 8 0 51 -21 95 -47z m371 1 l84 -48 -2 -104 -3 -104 -85
-48 -84 -48 -76 41 c-41 22 -81 45 -87 51 -9 6 -13 42 -13 111 l0 102 83 47
c45 26 86 47 91 47 4 0 46 -21 92 -47z m373 0 l81 -48 0 -102 0 -102 -57 -34
c-123 -73 -109 -72 -204 -18 l-84 48 -3 104 -2 104 82 47 c46 27 88 48 94 48
7 0 48 -21 93 -47z m370 1 l82 -47 -3 -105 -3 -106 -84 -48 -83 -48 -89 51
-90 51 3 101 3 101 80 48 c44 26 85 48 91 48 6 0 48 -21 93 -46z m-1674 -322
l80 -48 0 -103 0 -104 -87 -49 -87 -50 -83 49 -83 49 -3 105 -3 105 83 47 c46
26 88 47 93 46 6 0 46 -21 90 -47z m371 1 l84 -48 -2 -104 -3 -105 -83 -48
c-46 -26 -87 -48 -90 -48 -4 1 -43 22 -87 49 l-80 48 -3 104 -2 104 82 47 c46
26 87 48 92 48 4 0 46 -21 92 -47z m370 0 l84 -48 0 -105 0 -105 -86 -48 -86
-48 -86 49 -87 49 0 104 0 103 80 48 c44 26 84 47 89 48 4 0 46 -21 92 -47z
m369 2 c43 -25 83 -51 87 -58 10 -15 10 -178 0 -193 -4 -6 -44 -33 -89 -59
l-83 -48 -87 51 -88 51 0 102 0 103 80 47 c44 26 85 48 90 48 6 1 46 -19 90
-44z m380 -3 l80 -48 0 -103 0 -104 -87 -49 -87 -50 -85 49 -85 48 -1 106 0
105 83 47 c45 26 87 47 92 46 6 0 46 -21 90 -47z m370 0 l80 -47 0 -104 0
-105 -84 -49 -85 -48 -50 27 c-28 15 -68 38 -88 51 l-38 23 0 103 0 102 83 47
c45 26 87 48 92 48 6 0 46 -21 90 -48z m-2050 -320 l80 -48 3 -105 2 -104 -86
-49 -87 -49 -51 28 c-28 16 -68 39 -89 52 l-38 24 3 101 3 101 80 48 c44 27
85 48 90 49 6 0 46 -22 90 -48z m372 1 l83 -47 0 -105 0 -106 -84 -48 -84 -48
-34 17 c-18 9 -59 32 -91 51 l-58 35 3 100 3 101 85 48 c47 27 87 49 89 49 2
0 42 -21 88 -47z m373 -2 l85 -48 3 -101 3 -100 -58 -35 c-32 -19 -73 -42 -91
-52 l-34 -16 -86 50 c-86 49 -87 50 -90 93 -2 24 -1 70 3 103 l6 60 82 48 c45
26 84 47 87 47 3 0 43 -22 90 -49z m375 0 l80 -48 3 -101 3 -101 -38 -24 c-21
-13 -61 -36 -90 -51 l-51 -28 -86 48 -86 49 0 105 1 105 82 47 c45 26 87 47
92 47 6 0 46 -21 90 -48z m371 2 l83 -48 1 -105 0 -105 -87 -49 -86 -49 -51
28 c-28 16 -68 39 -89 52 l-38 24 3 101 3 101 80 48 c44 27 84 48 89 49 4 0
46 -21 92 -47z m370 0 l84 -48 0 -105 0 -105 -86 -49 -85 -49 -42 23 c-23 13
-62 36 -87 50 l-45 26 -3 102 -3 101 83 50 c46 27 87 50 92 50 4 1 46 -20 92
-46z m374 -2 l85 -48 3 -101 3 -100 -58 -35 c-32 -19 -73 -42 -91 -51 l-34
-17 -86 49 -87 49 -3 101 -3 100 88 51 c48 28 90 51 93 51 3 0 43 -22 90 -49z
m-2037 -328 l78 -45 -3 -101 -3 -101 -80 -48 c-44 -26 -85 -48 -92 -48 -6 0
-48 21 -93 47 l-81 48 3 105 3 105 80 47 c44 25 87 44 95 42 8 -3 50 -26 93
-51z m390 -10 l57 -34 0 -102 0 -102 -84 -47 c-46 -27 -87 -48 -92 -48 -4 0
-45 21 -91 48 l-83 47 2 104 3 104 84 48 c95 55 81 56 204 -18z m342 19 l80
-48 3 -105 3 -105 -87 -49 -87 -48 -45 23 c-25 14 -65 37 -89 52 l-44 28 3
101 3 102 85 48 c47 27 87 49 90 49 3 -1 41 -22 85 -48z m369 1 c45 -25 84
-51 89 -57 4 -6 6 -53 5 -105 l-3 -94 -80 -48 c-44 -27 -87 -48 -95 -48 -8 0
-51 21 -95 47 l-80 48 -3 101 -3 101 88 51 c48 28 90 51 92 51 2 0 40 -21 85
-47z m389 -10 l78 -45 -3 -101 -3 -101 -80 -48 c-44 -26 -85 -48 -91 -48 -6 0
-48 21 -93 46 l-82 47 3 105 3 106 80 48 c44 26 87 45 95 42 8 -3 50 -26 93
-51z m357 8 l85 -48 3 -104 2 -104 -84 -47 c-46 -27 -87 -48 -91 -48 -5 0 -46
21 -92 47 l-84 47 3 105 3 105 80 47 c44 26 82 48 85 48 3 1 43 -21 90 -48z
m-1602 -364 c8 -6 12 -42 12 -112 l0 -103 -80 -46 c-43 -25 -84 -46 -91 -46
-6 0 -49 21 -95 48 l-84 47 0 101 0 102 88 50 87 50 75 -40 c41 -22 81 -45 88
-51z m303 41 l90 -53 -3 -100 -3 -100 -80 -47 c-44 -27 -86 -48 -93 -48 -7 0
-48 20 -91 45 l-78 45 -7 83 c-4 46 -3 94 2 108 6 15 38 41 88 71 43 25 80 47
82 47 2 1 44 -23 93 -51z m377 -3 l82 -47 0 -102 0 -102 -83 -47 c-46 -26 -88
-47 -94 -47 -6 0 -47 21 -92 46 l-82 47 3 105 3 105 84 48 c47 26 87 47 90 45
3 -2 43 -25 89 -51z m385 -7 l67 -39 0 -102 0 -103 -81 -47 c-44 -26 -85 -47
-91 -47 -6 0 -49 21 -95 47 l-84 47 3 104 3 105 84 48 c71 40 88 46 105 37 12
-6 51 -28 89 -50z m352 12 l85 -51 0 -104 0 -103 -80 -46 c-43 -25 -85 -46
-92 -46 -6 0 -49 21 -95 48 l-83 47 0 101 0 102 88 50 c48 28 88 51 89 51 1 1
41 -22 88 -49z m-1295 -326 l80 -46 0 -103 0 -102 -80 -47 c-44 -25 -87 -46
-95 -46 -9 0 -52 21 -95 46 l-80 46 0 103 0 102 78 46 c42 25 85 46 95 46 10
1 54 -20 97 -45z m373 0 l77 -45 0 -104 0 -104 -67 -39 c-38 -22 -77 -44 -88
-49 -16 -9 -36 -1 -107 39 l-88 50 0 102 0 101 78 47 c42 25 86 46 97 47 11 0
55 -20 98 -45z m372 -2 l80 -47 3 -96 c3 -110 7 -105 -106 -167 l-74 -40 -89
51 -90 52 3 100 3 100 79 48 c44 26 87 47 95 47 9 0 52 -21 96 -48z m372 1
l83 -47 0 -101 0 -101 -87 -51 c-72 -42 -92 -49 -108 -41 -11 6 -50 28 -87 50
l-68 39 0 104 0 104 78 45 c42 25 83 46 91 46 8 0 52 -21 98 -47z"/>
</g>
</svg>
