<?xml version="1.0" standalone="no"?>
<!DOCTYPE svg PUBLIC "-//W3C//DTD SVG 20010904//EN"
 "http://www.w3.org/TR/2001/REC-SVG-20010904/DTD/svg10.dtd">
<svg version="1.0" xmlns="http://www.w3.org/2000/svg"
 width="286.000000pt" height="286.000000pt" viewBox="0 0 286.000000 286.000000"
 preserveAspectRatio="xMidYMid meet">
<metadata>
Created by potrace 1.13, written by Peter Selinger 2001-2015
</metadata>
<g transform="translate(0.000000,286.000000) scale(0.100000,-0.100000)"
fill="#000000" stroke="none">
<path d="M20 1430 l0 -1420 1415 0 1415 0 0 1420 0 1420 -1415 0 -1415 0 0
-1420z m2810 0 l0 -1390 -1395 0 -1395 0 0 1390 0 1390 1395 0 1395 0 0 -1390z"/>
<path d="M1180 2294 c-407 -27 -641 -65 -706 -116 -24 -19 -24 -21 -8 -39 24
-26 121 -56 259 -79 430 -70 1145 -63 1535 16 79 16 180 57 180 72 0 49 -211
104 -510 132 -116 11 -648 21 -750 14z"/>
<path d="M452 1967 l3 -142 46 -23 c57 -28 187 -56 374 -79 204 -26 935 -26
1145 0 181 23 311 50 370 80 l45 22 3 142 3 142 -46 -20 c-247 -109 -1176
-138 -1690 -53 -97 16 -158 32 -218 57 l-38 16 3 -142z"/>
<path d="M562 1127 c3 -609 4 -625 23 -647 59 -67 204 -123 415 -160 157 -28
524 -38 705 -21 225 22 436 76 524 135 85 57 81 21 81 704 0 528 -2 602 -15
602 -13 0 -15 -74 -15 -609 l0 -609 -26 -32 c-74 -87 -327 -153 -652 -169
-441 -22 -839 41 -982 157 l-25 20 -5 623 c-4 491 -8 623 -18 627 -10 3 -12
-119 -10 -621z"/>
<path d="M1147 1455 c-15 -15 -17 -53 -17 -375 0 -400 -6 -370 75 -370 77 0
75 -3 75 141 l0 129 60 0 c185 0 295 84 307 234 7 76 -8 125 -51 174 -55 63
-100 76 -277 80 -135 4 -158 2 -172 -13z m291 -125 c52 -32 67 -100 36 -165
-20 -43 -67 -65 -138 -65 l-56 0 0 125 0 125 63 0 c44 0 71 -6 95 -20z"/>
</g>
</svg>
