<?xml version="1.0" standalone="no"?>
<!DOCTYPE svg PUBLIC "-//W3C//DTD SVG 20010904//EN"
 "http://www.w3.org/TR/2001/REC-SVG-20010904/DTD/svg10.dtd">
<svg version="1.0" xmlns="http://www.w3.org/2000/svg"
 width="286.000000pt" height="286.000000pt" viewBox="0 0 286.000000 286.000000"
 preserveAspectRatio="xMidYMid meet">
<metadata>
Created by potrace 1.13, written by Peter Selinger 2001-2015
</metadata>
<g transform="translate(0.000000,286.000000) scale(0.100000,-0.100000)"
fill="#000000" stroke="none">
<path d="M10 1435 l0 -1415 1415 0 1415 0 0 1415 0 1415 -1415 0 -1415 0 0
-1415z m2810 0 l0 -1395 -1395 0 -1395 0 0 1395 0 1395 1395 0 1395 0 0 -1395z"/>
<path d="M1135 2709 c-176 -13 -375 -47 -507 -86 -92 -27 -147 -37 -221 -40
l-97 -4 0 -46 c0 -29 -9 -65 -25 -97 l-25 -52 2 -994 c3 -1137 -6 -1029 98
-1101 391 -270 1739 -270 2130 0 104 72 95 -35 98 1096 3 1104 7 1043 -66
1106 -184 162 -816 261 -1387 218z m755 -44 c330 -46 544 -118 630 -212 53
-57 53 -89 0 -147 -106 -115 -397 -196 -832 -231 l-78 -6 0 256 0 255 -517 1
c-356 0 -510 3 -493 10 70 28 311 72 490 89 148 14 665 4 800 -15z m-1029
-285 l549 0 0 -157 0 -156 -162 6 c-444 17 -803 108 -918 233 -40 43 -48 72
-32 111 6 15 8 13 10 -9 l3 -28 550 0z m-440 -171 c176 -89 477 -148 837 -165
l152 -7 0 -563 0 -564 -125 0 -125 0 0 -265 0 -265 340 0 340 0 0 265 0 265
-115 0 -115 0 0 570 0 570 63 0 c72 0 267 23 388 46 201 37 386 107 462 173
l37 33 0 -954 0 -954 -35 -41 c-84 -99 -336 -178 -710 -224 -131 -17 -649 -17
-780 0 -376 46 -625 124 -709 223 l-36 42 0 954 0 954 35 -31 c20 -17 63 -45
96 -62z"/>
</g>
</svg>
