<?xml version="1.0" standalone="no"?>
<!DOCTYPE svg PUBLIC "-//W3C//DTD SVG 20010904//EN"
 "http://www.w3.org/TR/2001/REC-SVG-20010904/DTD/svg10.dtd">
<svg version="1.0" xmlns="http://www.w3.org/2000/svg"
 width="286.000000pt" height="286.000000pt" viewBox="0 0 286.000000 286.000000"
 preserveAspectRatio="xMidYMid meet">
<metadata>
Created by potrace 1.13, written by Peter Selinger 2001-2015
</metadata>
<g transform="translate(0.000000,286.000000) scale(0.100000,-0.100000)"
fill="#000000" stroke="none">
<path d="M20 1435 l0 -1415 1415 0 1415 0 0 1415 0 1415 -1415 0 -1415 0 0
-1415z m2810 0 l0 -1395 -1395 0 -1395 0 0 1395 0 1395 1395 0 1395 0 0 -1395z"/>
<path d="M1090 2689 c-407 -31 -731 -112 -869 -218 -19 -14 -42 -44 -52 -66
-18 -38 -19 -93 -19 -1010 0 -538 4 -987 9 -1009 39 -164 465 -291 1058 -315
643 -26 1243 79 1404 245 l34 35 5 1007 c4 833 3 1013 -9 1045 -61 169 -624
300 -1271 295 -102 0 -232 -4 -290 -9z m666 -29 c265 -21 516 -68 671 -127
136 -51 223 -130 209 -187 -29 -116 -312 -221 -732 -271 -179 -22 -611 -30
-809 -16 -591 43 -979 189 -901 339 64 124 441 235 901 265 121 8 544 6 661
-3z m-1385 -490 c153 -59 326 -96 586 -126 209 -25 700 -24 908 0 356 42 598
109 726 201 l49 35 0 -946 c0 -833 -2 -949 -15 -975 -9 -16 -41 -46 -72 -66
-367 -235 -1583 -272 -2149 -65 -101 37 -188 92 -209 131 -13 26 -15 142 -15
975 l0 945 56 -39 c31 -22 92 -53 135 -70z"/>
<path d="M1466 1875 c-21 -7 -53 -27 -70 -44 l-32 -31 -172 0 c-170 0 -173 0
-197 -25 -31 -30 -32 -56 -1 -92 l24 -28 178 -3 179 -4 32 -31 c31 -30 33 -37
33 -99 0 -52 -3 -68 -14 -68 -8 0 -44 -15 -79 -34 -65 -33 -67 -34 -229 -38
-190 -6 -258 -23 -358 -90 -67 -44 -113 -100 -144 -176 -17 -39 -21 -78 -24
-231 -4 -173 -3 -185 17 -212 l21 -28 -20 -77 c-33 -129 -23 -187 47 -264 102
-113 277 -120 401 -15 71 60 91 172 52 296 -19 62 -19 63 0 76 18 13 20 26 20
124 l0 109 76 0 c61 0 82 -4 105 -21 110 -78 305 -80 420 -5 38 26 39 26 253
26 136 0 224 4 239 11 41 19 47 48 47 239 0 175 -1 180 -24 207 l-24 28 -227
3 c-219 3 -228 4 -264 27 -21 13 -57 29 -79 36 l-42 12 0 65 c0 62 1 66 40
103 l40 39 173 0 c168 0 174 1 195 23 28 30 28 68 -1 95 -22 21 -32 22 -195
22 l-173 0 -33 33 c-31 31 -92 57 -132 57 -11 -1 -36 -7 -58 -15z m195 -608
l54 -37 193 0 192 0 0 -95 0 -95 -182 0 c-155 0 -188 -3 -215 -18 -17 -9 -51
-28 -75 -41 -64 -36 -149 -34 -213 5 -26 16 -57 35 -69 41 -26 16 -280 18
-323 3 -42 -15 -53 -47 -53 -155 l0 -95 -105 0 -105 0 0 129 c0 121 2 132 28
182 55 105 152 139 393 139 150 0 158 1 192 25 76 51 89 55 163 53 63 -3 76
-7 125 -41z m-719 -690 c10 -26 21 -71 24 -100 6 -50 4 -55 -26 -85 -42 -42
-103 -45 -149 -6 -26 21 -31 33 -31 69 0 24 9 73 21 109 l20 67 62 -3 61 -3
18 -48z"/>
</g>
</svg>
