<?xml version="1.0" standalone="no"?>
<!DOCTYPE svg PUBLIC "-//W3C//DTD SVG 20010904//EN"
 "http://www.w3.org/TR/2001/REC-SVG-20010904/DTD/svg10.dtd">
<svg version="1.0" xmlns="http://www.w3.org/2000/svg"
 width="351.000000pt" height="311.000000pt" viewBox="0 0 351.000000 311.000000"
 preserveAspectRatio="xMidYMid meet">
<metadata>
Created by potrace 1.13, written by Peter Selinger 2001-2015
</metadata>
<g transform="translate(0.000000,311.000000) scale(0.100000,-0.100000)"
fill="#000000" stroke="none">
<path d="M230 1680 l0 -1420 1415 0 1415 0 0 1420 0 1420 -1415 0 -1415 0 0
-1420z m2810 0 l0 -1390 -1395 0 -1395 0 0 1390 0 1390 1395 0 1395 0 0 -1390z"/>
<path d="M1335 2969 c-140 -12 -373 -53 -480 -84 -171 -49 -304 -126 -331
-192 -12 -27 -14 -208 -14 -1036 l0 -1004 23 -34 c146 -218 971 -333 1670
-234 134 20 329 68 411 103 85 36 166 91 193 131 l23 34 0 1004 c0 828 -2
1009 -14 1036 -27 66 -160 143 -331 192 -116 34 -335 71 -498 84 -147 13 -505
12 -652 0z m727 -35 c439 -43 738 -162 738 -294 0 -33 -6 -46 -39 -78 -95 -92
-323 -165 -656 -208 -185 -25 -687 -25 -870 0 -334 44 -561 116 -656 208 -33
32 -39 45 -39 78 0 219 769 368 1522 294z m-1395 -463 c387 -194 1332 -224
1853 -59 113 36 196 76 245 119 l35 31 0 -956 0 -956 -35 -38 c-110 -123 -461
-212 -908 -231 -627 -27 -1173 79 -1301 252 -21 28 -21 32 -24 984 l-2 956 40
-36 c21 -20 65 -50 97 -66z"/>
<path d="M1694 2216 c-169 -32 -279 -90 -394 -205 -97 -98 -153 -196 -191
-336 -32 -116 -32 -384 -1 -499 72 -261 237 -426 498 -498 64 -17 108 -21 239
-22 99 -1 187 4 230 13 111 21 250 69 271 92 18 20 19 43 22 363 2 187 0 351
-3 364 -3 12 -14 31 -25 42 -19 19 -35 20 -294 20 -242 0 -275 -2 -287 -17
-19 -22 -19 -174 0 -196 11 -14 36 -17 157 -17 l144 0 0 -181 0 -180 -45 -20
c-95 -42 -252 -35 -360 17 -107 50 -187 148 -228 279 -18 58 -22 94 -22 205 0
157 21 239 85 339 141 217 448 263 750 111 44 -22 86 -40 94 -40 37 0 50 167
18 230 -21 43 -110 90 -227 121 -104 27 -329 35 -431 15z"/>
</g>
</svg>
