<?xml version="1.0" standalone="no"?>
<!DOCTYPE svg PUBLIC "-//W3C//DTD SVG 20010904//EN"
 "http://www.w3.org/TR/2001/REC-SVG-20010904/DTD/svg10.dtd">
<svg version="1.0" xmlns="http://www.w3.org/2000/svg"
 width="286.000000pt" height="286.000000pt" viewBox="0 0 286.000000 286.000000"
 preserveAspectRatio="xMidYMid meet">
<metadata>
Created by potrace 1.13, written by Peter Selinger 2001-2015
</metadata>
<g transform="translate(0.000000,286.000000) scale(0.100000,-0.100000)"
fill="#000000" stroke="none">
<path d="M10 1435 l0 -1415 1420 0 1420 0 0 1415 0 1415 -1420 0 -1420 0 0
-1415z m2810 -5 l0 -1390 -1390 0 -1390 0 0 1390 0 1390 1390 0 1390 0 0
-1390z"/>
<path d="M1222 2569 c-296 -28 -554 -151 -767 -364 -126 -125 -224 -283 -278
-446 -69 -206 -69 -481 -1 -688 96 -289 327 -548 608 -685 184 -89 355 -127
566 -127 348 0 652 123 889 360 400 400 450 995 121 1454 -203 282 -526 462
-897 497 -118 11 -120 11 -241 -1z m413 -243 c338 -101 586 -343 681 -663 37
-126 43 -293 16 -423 -64 -310 -274 -562 -574 -690 -144 -61 -215 -74 -408
-75 -160 0 -183 3 -273 28 -340 94 -594 338 -694 664 -23 78 -27 105 -27 238
-1 115 3 167 18 225 21 85 76 209 128 291 113 176 326 333 545 399 114 34 158
39 333 36 144 -3 177 -7 255 -30z"/>
<path d="M1248 1625 l-98 -64 0 -45 c0 -25 5 -48 10 -51 6 -4 44 12 85 34 l75
40 0 -244 0 -245 -74 0 c-80 0 -86 -4 -86 -60 0 -62 -8 -60 230 -60 238 0 230
-2 230 60 0 55 -6 60 -81 60 l-69 0 -2 318 -3 317 -60 2 c-58 2 -63 1 -157
-62z"/>
</g>
</svg>
