<?xml version="1.0" standalone="no"?>
<!DOCTYPE svg PUBLIC "-//W3C//DTD SVG 20010904//EN"
 "http://www.w3.org/TR/2001/REC-SVG-20010904/DTD/svg10.dtd">
<svg version="1.0" xmlns="http://www.w3.org/2000/svg"
 width="286.000000pt" height="286.000000pt" viewBox="0 0 286.000000 286.000000"
 preserveAspectRatio="xMidYMid meet">
<metadata>
Created by potrace 1.13, written by Peter Selinger 2001-2015
</metadata>
<g transform="translate(0.000000,286.000000) scale(0.100000,-0.100000)"
fill="#000000" stroke="none">
<path d="M20 1425 l0 -1415 1415 0 1415 0 0 1415 0 1415 -1415 0 -1415 0 0
-1415z m2810 5 l0 -1390 -1395 0 -1395 0 0 1390 0 1390 1395 0 1395 0 0 -1390z"/>
<path d="M1205 2555 c-357 -63 -659 -256 -841 -537 -89 -138 -142 -276 -169
-438 -19 -119 -19 -208 0 -333 40 -264 165 -491 375 -683 321 -293 818 -391
1250 -248 183 61 356 171 493 313 101 105 155 182 218 315 137 288 141 614 11
914 -54 124 -130 232 -246 348 -176 176 -374 283 -626 339 -104 23 -361 28
-465 10z m456 -228 c278 -72 498 -236 631 -473 83 -147 112 -258 112 -439 1
-167 -15 -245 -80 -384 -57 -122 -114 -200 -217 -297 -130 -122 -274 -199
-464 -246 -117 -29 -329 -31 -452 -4 -308 66 -578 279 -701 550 -60 133 -75
206 -75 376 0 131 4 167 23 233 109 378 418 642 828 707 99 15 287 4 395 -23z"/>
<path d="M1294 1700 c-84 -27 -114 -57 -114 -112 0 -71 9 -75 81 -39 84 42
139 42 180 2 65 -66 23 -173 -135 -339 -56 -59 -110 -118 -119 -132 -20 -28
-23 -100 -5 -118 9 -9 78 -12 249 -12 259 0 249 -2 249 60 0 61 2 60 -173 60
l-161 0 105 108 c119 120 165 184 185 250 64 211 -107 346 -342 272z"/>
</g>
</svg>
