<?xml version="1.0" standalone="no"?>
<!DOCTYPE svg PUBLIC "-//W3C//DTD SVG 20010904//EN"
 "http://www.w3.org/TR/2001/REC-SVG-20010904/DTD/svg10.dtd">
<svg version="1.0" xmlns="http://www.w3.org/2000/svg"
 width="286.000000pt" height="286.000000pt" viewBox="0 0 286.000000 286.000000"
 preserveAspectRatio="xMidYMid meet">
<metadata>
Created by potrace 1.13, written by Peter Selinger 2001-2015
</metadata>
<g transform="translate(0.000000,286.000000) scale(0.100000,-0.100000)"
fill="#000000" stroke="none">
<path d="M20 1435 l0 -1415 1415 0 1415 0 0 1415 0 1415 -1415 0 -1415 0 0
-1415z m2810 0 l0 -1395 -1395 0 -1395 0 0 1395 0 1395 1395 0 1395 0 0 -1395z"/>
<path d="M1389 2480 c-381 -36 -724 -239 -929 -550 -67 -103 -112 -205 -148
-339 -23 -86 -26 -114 -26 -266 0 -152 3 -180 26 -266 55 -203 144 -362 284
-509 214 -224 484 -352 802 -379 483 -42 945 189 1181 591 103 174 152 356
153 558 1 439 -247 829 -658 1033 -204 102 -456 148 -685 127z m376 -238 c374
-103 640 -368 722 -719 24 -105 24 -290 0 -395 -84 -357 -362 -630 -737 -724
-60 -15 -111 -19 -255 -18 -166 0 -187 3 -270 28 -233 70 -428 207 -553 390
-64 93 -86 138 -123 249 -41 121 -51 315 -25 447 78 384 398 687 803 760 84
15 359 4 438 -18z"/>
<path d="M1381 1692 c-82 -30 -105 -51 -109 -102 -2 -23 1 -47 6 -52 5 -5 36
4 76 23 55 26 76 31 114 26 77 -8 112 -71 80 -141 -19 -43 -56 -60 -143 -66
l-80 -5 0 -50 0 -50 85 -6 c47 -3 95 -11 107 -17 35 -19 63 -62 63 -97 0 -96
-130 -133 -263 -76 -27 12 -53 19 -58 15 -16 -10 -10 -90 9 -113 38 -46 210
-65 312 -35 79 23 126 59 155 117 31 63 32 119 3 177 -25 48 -83 89 -128 90
-21 0 -19 3 15 19 48 22 69 44 90 94 36 87 5 189 -71 233 -62 36 -185 43 -263
16z"/>
</g>
</svg>
