<?xml version="1.0" standalone="no"?>
<!DOCTYPE svg PUBLIC "-//W3C//DTD SVG 20010904//EN"
 "http://www.w3.org/TR/2001/REC-SVG-20010904/DTD/svg10.dtd">
<svg version="1.0" xmlns="http://www.w3.org/2000/svg"
 width="286.000000pt" height="286.000000pt" viewBox="0 0 286.000000 286.000000"
 preserveAspectRatio="xMidYMid meet">
<metadata>
Created by potrace 1.13, written by Peter Selinger 2001-2015
</metadata>
<g transform="translate(0.000000,286.000000) scale(0.100000,-0.100000)"
fill="#000000" stroke="none">
<path d="M10 1430 l0 -1420 1415 0 1415 0 0 1420 0 1420 -1415 0 -1415 0 0
-1420z m2810 0 l0 -1390 -1390 0 -1390 0 0 1390 0 1390 1390 0 1390 0 0 -1390z"/>
<path d="M1245 2554 c-179 -31 -370 -110 -511 -209 -102 -73 -242 -217 -311
-321 -132 -199 -191 -414 -180 -661 11 -285 123 -534 331 -745 348 -351 895
-462 1364 -277 381 151 654 468 732 851 25 123 28 306 6 419 -93 483 -494 862
-999 944 -113 18 -325 18 -432 -1z m485 -227 c119 -31 212 -73 315 -142 91
-60 217 -187 272 -272 117 -183 169 -404 143 -608 -56 -446 -424 -790 -893
-834 -435 -41 -839 182 -1016 561 -134 285 -107 629 69 888 148 218 390 374
660 425 116 22 330 13 450 -18z"/>
<path d="M1442 1703 c-11 -10 -73 -112 -137 -228 -121 -215 -138 -261 -121
-329 l6 -26 155 0 155 0 0 -74 c0 -83 3 -86 75 -86 72 0 75 3 75 86 l0 74 39
0 c42 0 51 11 51 60 0 49 -9 60 -51 60 l-39 0 0 234 0 234 -22 6 c-13 3 -55 6
-94 6 -54 0 -77 -4 -92 -17z m55 -460 c-3 -2 -47 -2 -99 -1 l-95 3 96 170 96
170 3 -169 c1 -93 1 -171 -1 -173z"/>
</g>
</svg>
