<?xml version="1.0" standalone="no"?>
<!DOCTYPE svg PUBLIC "-//W3C//DTD SVG 20010904//EN"
 "http://www.w3.org/TR/2001/REC-SVG-20010904/DTD/svg10.dtd">
<svg version="1.0" xmlns="http://www.w3.org/2000/svg"
 width="286.000000pt" height="286.000000pt" viewBox="0 0 286.000000 286.000000"
 preserveAspectRatio="xMidYMid meet">
<metadata>
Created by potrace 1.13, written by Peter Selinger 2001-2015
</metadata>
<g transform="translate(0.000000,286.000000) scale(0.100000,-0.100000)"
fill="#000000" stroke="none">
<path d="M10 1430 l0 -1420 1415 0 1415 0 0 1420 0 1420 -1415 0 -1415 0 0
-1420z m2810 0 l0 -1390 -1395 0 -1395 0 0 1390 0 1390 1395 0 1395 0 0 -1390z"/>
<path d="M595 2610 c-3 -11 -12 -20 -19 -20 -17 0 -26 -156 -26 -477 l0 -253
99 0 98 0 7 263 c4 144 10 264 12 266 3 3 1485 -306 1490 -312 3 -3 -174 -998
-178 -1002 -2 -2 -200 38 -441 88 l-437 92 182 3 c197 3 198 3 198 59 0 58 -6
63 -81 63 l-69 0 -2 318 -3 317 -57 3 c-55 3 -60 1 -158 -62 l-100 -65 0 -45
c0 -25 5 -48 10 -51 6 -4 44 12 85 34 l75 40 0 -244 0 -245 -75 0 c-71 0 -75
-1 -81 -25 -3 -14 -4 -39 -2 -55 4 -26 2 -29 -16 -25 -47 11 -686 145 -691
145 -3 0 -5 -7 -5 -15 0 -8 -9 -15 -20 -15 -20 0 -20 -7 -20 -370 l0 -371 98
3 97 3 3 262 c1 145 6 263 10 263 5 0 339 -70 742 -155 404 -85 735 -155 737
-155 2 0 3 -130 3 -290 l0 -290 100 0 101 0 -1 388 -1 387 35 200 c20 109 36
203 36 207 0 4 36 8 80 8 l80 0 0 365 c0 329 -2 365 -16 365 -10 0 -14 6 -11
14 4 10 -7 17 -41 25 -78 18 -1806 381 -1813 381 -4 0 -11 -9 -14 -20z"/>
</g>
</svg>
