<?xml version="1.0" standalone="no"?>
<!DOCTYPE svg PUBLIC "-//W3C//DTD SVG 20010904//EN"
 "http://www.w3.org/TR/2001/REC-SVG-20010904/DTD/svg10.dtd">
<svg version="1.0" xmlns="http://www.w3.org/2000/svg"
 width="286.000000pt" height="286.000000pt" viewBox="0 0 286.000000 286.000000"
 preserveAspectRatio="xMidYMid meet">
<metadata>
Created by potrace 1.13, written by Peter Selinger 2001-2015
</metadata>
<g transform="translate(0.000000,286.000000) scale(0.100000,-0.100000)"
fill="#000000" stroke="none">
<path d="M20 1435 l0 -1415 1415 0 1415 0 0 1415 0 1415 -1415 0 -1415 0 0
-1415z m2800 0 l0 -1395 -1390 0 -1390 0 0 1395 0 1395 1390 0 1390 0 0 -1395z"/>
<path d="M610 2610 c0 -13 -8 -24 -20 -27 -20 -5 -20 -14 -20 -369 l0 -364
100 0 100 0 0 271 c0 253 1 270 18 265 9 -2 346 -73 747 -157 402 -84 732
-154 733 -155 2 -1 -36 -228 -85 -503 -68 -391 -91 -501 -102 -501 -8 0 -378
77 -821 170 -444 94 -814 170 -823 170 -10 0 -17 -7 -17 -15 0 -8 -9 -15 -20
-15 -20 0 -20 -7 -20 -365 l0 -365 100 0 100 0 0 266 c0 209 3 265 13 261 6
-2 342 -73 744 -158 l733 -154 0 -292 0 -293 100 0 100 0 0 378 0 377 37 218
38 217 77 0 78 0 0 228 c0 126 3 290 7 365 5 123 4 137 -10 137 -10 0 -17 8
-17 18 0 15 -122 43 -922 211 -508 107 -929 196 -935 199 -8 2 -13 -5 -13 -18z"/>
<path d="M1484 2120 c-84 -27 -114 -57 -114 -112 0 -71 9 -75 81 -39 84 42
139 42 180 2 65 -66 23 -173 -135 -339 -56 -59 -110 -118 -119 -132 -20 -28
-23 -100 -5 -118 9 -9 78 -12 249 -12 259 0 249 -2 249 60 0 61 2 60 -173 60
l-161 0 105 108 c119 120 165 184 185 250 64 211 -107 346 -342 272z"/>
</g>
</svg>
