<?xml version="1.0" standalone="no"?>
<!DOCTYPE svg PUBLIC "-//W3C//DTD SVG 20010904//EN"
 "http://www.w3.org/TR/2001/REC-SVG-20010904/DTD/svg10.dtd">
<svg version="1.0" xmlns="http://www.w3.org/2000/svg"
 width="286.000000pt" height="286.000000pt" viewBox="0 0 286.000000 286.000000"
 preserveAspectRatio="xMidYMid meet">
<metadata>
Created by potrace 1.13, written by Peter Selinger 2001-2015
</metadata>
<g transform="translate(0.000000,286.000000) scale(0.100000,-0.100000)"
fill="#000000" stroke="none">
<path d="M10 1425 l0 -1415 1420 0 1420 0 0 1415 0 1415 -1420 0 -1420 0 0
-1415z m2810 0 l0 -1395 -1390 0 -1390 0 0 1395 0 1395 1390 0 1390 0 0 -1395z"/>
<path d="M610 2550 c0 -13 -7 -20 -20 -20 -20 0 -20 -7 -20 -365 l0 -365 100
0 100 0 0 265 c0 222 2 265 14 265 23 0 1477 -308 1484 -314 4 -5 -166 -996
-173 -1004 -1 -1 -375 76 -831 173 -665 140 -831 172 -839 162 -5 -7 -18 -16
-28 -20 -16 -6 -17 -31 -15 -369 l3 -363 96 -3 97 -3 3 260 c2 143 7 262 10
265 5 5 1330 -269 1453 -300 l26 -6 0 -289 0 -289 100 0 100 0 2 268 c4 515 4
516 37 702 17 96 34 185 36 198 5 21 11 22 85 22 l80 0 0 365 c0 318 -2 365
-15 365 -8 0 -15 7 -15 15 0 8 -16 18 -37 24 -64 15 -1810 381 -1822 381 -6 0
-11 -9 -11 -20z"/>
<path d="M1241 2062 c-82 -30 -105 -51 -109 -102 -2 -23 1 -47 6 -52 5 -5 36
4 76 23 55 26 76 31 114 26 77 -8 112 -71 80 -141 -19 -43 -56 -60 -143 -66
l-80 -5 0 -50 0 -50 85 -6 c47 -3 95 -11 107 -17 35 -19 63 -62 63 -97 0 -96
-130 -133 -263 -76 -27 12 -53 19 -58 15 -16 -10 -10 -90 9 -113 38 -46 210
-65 312 -35 79 23 126 59 155 117 31 63 32 119 3 177 -25 48 -83 89 -128 90
-21 0 -19 3 15 19 48 22 69 44 90 94 36 87 5 189 -71 233 -62 36 -185 43 -263
16z"/>
</g>
</svg>
