<?xml version="1.0" standalone="no"?>
<!DOCTYPE svg PUBLIC "-//W3C//DTD SVG 20010904//EN"
 "http://www.w3.org/TR/2001/REC-SVG-20010904/DTD/svg10.dtd">
<svg version="1.0" xmlns="http://www.w3.org/2000/svg"
 width="293.000000pt" height="286.000000pt" viewBox="0 0 293.000000 286.000000"
 preserveAspectRatio="xMidYMid meet">
<metadata>
Created by potrace 1.13, written by Peter Selinger 2001-2015
</metadata>
<g transform="translate(0.000000,286.000000) scale(0.100000,-0.100000)"
fill="#000000" stroke="none">
<path d="M10 1430 l0 -1420 1415 0 1415 0 0 1420 0 1420 -1415 0 -1415 0 0
-1420z m2810 0 l0 -1390 -1390 0 -1390 0 0 1390 0 1390 1390 0 1390 0 0 -1390z"/>
<path d="M150 2396 c0 -152 0 -154 28 -188 15 -20 34 -46 42 -58 17 -25 89
-122 120 -160 11 -14 20 -28 20 -32 0 -5 8 -17 18 -27 23 -26 25 -29 130 -171
50 -69 99 -134 108 -145 9 -11 28 -38 42 -60 15 -22 29 -42 32 -45 3 -3 18
-23 35 -45 16 -22 35 -46 42 -53 7 -7 13 -17 13 -22 0 -5 6 -15 13 -22 6 -7
41 -51 77 -98 61 -80 65 -88 72 -155 10 -103 9 -205 -2 -205 -5 0 -15 10 -21
22 -7 13 -17 28 -23 35 -18 21 -30 36 -61 83 -16 25 -36 51 -42 58 -7 7 -13
17 -13 21 0 4 -8 17 -17 29 -10 11 -24 28 -31 39 -7 10 -43 61 -80 113 -38 52
-93 131 -123 175 -58 87 -60 88 -89 124 -11 13 -20 27 -20 31 0 4 -9 17 -20
30 -14 17 -20 37 -20 75 0 62 -24 110 -93 187 -53 59 -51 57 -91 116 -16 24
-33 45 -38 48 -5 3 -8 -64 -7 -152 1 -157 1 -159 30 -200 21 -31 43 -48 83
-65 43 -17 63 -33 93 -76 21 -30 61 -85 88 -123 28 -38 66 -92 85 -120 19 -28
42 -59 50 -70 8 -11 30 -41 48 -67 53 -76 201 -287 209 -298 4 -5 21 -30 38
-55 16 -25 32 -47 35 -50 3 -3 12 -16 21 -29 14 -22 13 -28 -13 -78 -34 -66
-35 -83 -3 -117 22 -24 31 -26 107 -27 110 -2 128 -4 185 -27 52 -22 126 -47
185 -64 22 -6 47 -23 63 -43 39 -51 75 -65 176 -65 48 0 110 5 136 10 26 6
100 16 163 24 63 8 151 22 195 31 44 9 124 17 177 17 146 0 224 34 300 130 64
82 78 134 87 328 6 150 -2 236 -34 360 -16 66 -47 158 -65 195 -5 11 -14 38
-19 60 -21 87 -43 161 -53 172 -5 7 -7 17 -3 23 3 5 2 10 -4 10 -5 0 -12 14
-16 30 -4 17 -22 60 -41 96 -19 36 -34 72 -34 80 0 8 -3 14 -7 14 -5 0 -16 20
-26 45 -11 25 -23 45 -28 45 -5 0 -9 -54 -9 -120 0 -66 -4 -120 -9 -120 -5 0
-31 45 -57 99 -27 55 -55 102 -61 105 -10 4 -13 -22 -13 -111 0 -72 -4 -113
-9 -108 -5 6 -32 55 -60 110 l-50 100 -1 -127 c0 -71 -4 -128 -8 -128 -5 0
-28 39 -53 88 -24 48 -52 96 -62 106 -16 19 -17 14 -10 -104 4 -75 3 -121 -3
-117 -5 3 -25 38 -44 79 -19 40 -38 75 -43 76 -4 2 -5 8 -1 13 3 5 0 9 -5 9
-6 0 -11 7 -11 15 0 8 -6 15 -13 15 -10 0 -11 -16 -6 -72 4 -40 8 -115 8 -165
1 -92 1 -93 -23 -93 -19 0 -30 -12 -56 -62 -17 -35 -37 -72 -43 -83 -37 -59
-94 -145 -120 -178 -20 -26 -28 -45 -24 -63 3 -20 -3 -31 -35 -57 -21 -18 -51
-42 -66 -54 -15 -13 -30 -23 -34 -23 -3 0 -21 30 -40 68 -18 37 -35 69 -38 72
-3 3 -20 34 -38 70 -18 36 -79 155 -135 265 -56 110 -104 202 -107 205 -3 3
-44 82 -90 175 -47 94 -87 172 -90 175 -5 5 -16 27 -153 293 l-81 157 -258 0
-258 0 0 -154z"/>
</g>
</svg>
