<?xml version="1.0" standalone="no"?>
<!DOCTYPE svg PUBLIC "-//W3C//DTD SVG 20010904//EN"
 "http://www.w3.org/TR/2001/REC-SVG-20010904/DTD/svg10.dtd">
<svg version="1.0" xmlns="http://www.w3.org/2000/svg"
 width="291.000000pt" height="286.000000pt" viewBox="0 0 291.000000 286.000000"
 preserveAspectRatio="xMidYMid meet">
<metadata>
Created by potrace 1.13, written by Peter Selinger 2001-2015
</metadata>
<g transform="translate(0.000000,286.000000) scale(0.100000,-0.100000)"
fill="#000000" stroke="none">
<path d="M10 1425 l0 -1415 1420 0 1420 0 0 1415 0 1415 -1420 0 -1420 0 0
-1415z m2411 393 c30 -14 68 -37 86 -52 71 -60 108 -201 84 -316 -22 -102
-101 -187 -197 -211 l-41 -11 -6 -80 c-3 -44 -8 -82 -12 -86 -10 -10 -139 -14
-153 -4 -10 7 -15 45 -19 129 -7 139 0 153 70 153 60 0 108 28 135 81 20 37
23 55 19 108 -5 67 -21 98 -71 135 -41 31 -161 29 -234 -4 -66 -29 -73 -22
-70 64 3 56 5 61 37 80 90 52 274 59 372 14z m-1461 -67 c13 -25 13 -107 0
-132 -10 -18 -23 -19 -180 -19 l-170 0 0 -135 0 -135 160 0 c180 0 180 0 180
-80 0 -80 0 -80 -180 -80 l-160 0 0 -195 0 -195 -26 -10 c-33 -13 -125 -13
-158 0 l-26 10 0 476 c0 430 2 479 17 496 15 17 37 18 274 18 245 0 259 -1
269 -19z m702 -10 c135 -53 198 -189 154 -335 -20 -66 -56 -108 -120 -142
l-55 -28 40 -34 c22 -19 53 -60 68 -91 46 -90 131 -299 131 -320 0 -11 -9 -21
-22 -25 -42 -11 -164 -6 -180 7 -8 6 -41 77 -72 157 -32 80 -67 160 -78 179
-30 48 -73 71 -135 71 l-53 0 0 -200 0 -200 -26 -10 c-33 -13 -125 -13 -158 0
l-26 10 0 476 c0 440 1 479 17 497 17 18 31 19 238 15 198 -4 226 -6 277 -27z
m661 -782 c32 -14 47 -49 47 -104 0 -82 -32 -115 -110 -115 -78 0 -110 33
-110 115 0 54 15 90 44 103 28 14 99 15 129 1z"/>
<path d="M1340 1469 l0 -141 88 4 c100 4 136 19 169 67 26 39 29 86 8 137 -21
51 -77 73 -182 74 l-83 0 0 -141z"/>
</g>
</svg>
