<?xml version="1.0" standalone="no"?>
<!DOCTYPE svg PUBLIC "-//W3C//DTD SVG 20010904//EN"
 "http://www.w3.org/TR/2001/REC-SVG-20010904/DTD/svg10.dtd">
<svg version="1.0" xmlns="http://www.w3.org/2000/svg"
 width="286.000000pt" height="286.000000pt" viewBox="0 0 286.000000 286.000000"
 preserveAspectRatio="xMidYMid meet">
<metadata>
Created by potrace 1.13, written by Peter Selinger 2001-2015
</metadata>
<g transform="translate(0.000000,286.000000) scale(0.100000,-0.100000)"
fill="#000000" stroke="none">
<path d="M10 1435 l0 -1415 1420 0 1420 0 0 1415 0 1415 -1420 0 -1420 0 0
-1415z m2810 0 l0 -1395 -1390 0 -1390 0 0 1395 0 1395 1390 0 1390 0 0 -1395z"/>
<path d="M750 2513 c-19 -25 -21 -38 -18 -116 3 -78 6 -91 26 -107 22 -18 22
-22 22 -233 l0 -215 -44 -26 c-58 -34 -103 -87 -138 -163 -101 -216 -27 -483
164 -588 46 -26 63 -30 128 -30 55 0 87 6 122 22 63 29 138 105 172 176 l28
57 213 0 212 0 7 -47 c19 -144 154 -243 270 -199 133 51 194 235 126 379 l-22
47 32 98 c41 125 51 250 23 301 -29 55 -62 73 -142 79 l-71 5 0 153 c0 146 1
154 24 181 20 24 23 36 18 81 -5 60 -12 68 -44 51 -87 -44 -108 -106 -108
-316 l0 -154 -152 3 -152 3 -33 275 c-29 246 -35 277 -54 293 -19 15 -49 17
-304 17 l-284 0 -21 -27z m494 -240 c9 -60 36 -286 36 -305 0 -17 -14 -18
-170 -18 l-170 0 0 180 0 180 149 0 149 0 6 -37z m-274 -655 c101 -68 107
-250 12 -330 -71 -60 -167 -38 -218 48 -24 41 -29 60 -28 114 1 75 17 113 69
159 46 40 114 43 165 9z m924 -259 c21 -17 26 -29 26 -65 0 -51 -25 -84 -65
-84 -66 0 -92 99 -39 148 31 27 44 28 78 1z"/>
<path d="M1413 993 c-614 -3 -783 -6 -783 -15 0 -7 -109 -122 -242 -255 l-243
-243 83 -82 82 -83 233 233 232 232 660 0 660 0 200 -200 c110 -110 202 -200
205 -200 3 0 41 39 84 86 l79 86 -224 224 c-123 123 -228 223 -234 222 -5 -2
-362 -4 -792 -5z"/>
</g>
</svg>
