<?xml version="1.0" standalone="no"?>
<!DOCTYPE svg PUBLIC "-//W3C//DTD SVG 20010904//EN"
 "http://www.w3.org/TR/2001/REC-SVG-20010904/DTD/svg10.dtd">
<svg version="1.0" xmlns="http://www.w3.org/2000/svg"
 width="286.000000pt" height="286.000000pt" viewBox="0 0 286.000000 286.000000"
 preserveAspectRatio="xMidYMid meet">
<metadata>
Created by potrace 1.13, written by Peter Selinger 2001-2015
</metadata>
<g transform="translate(0.000000,286.000000) scale(0.100000,-0.100000)"
fill="#000000" stroke="none">
<path d="M20 1425 l0 -1415 1415 0 1415 0 0 1415 0 1415 -1415 0 -1415 0 0
-1415z m2810 0 l0 -1395 -1395 0 -1395 0 0 1395 0 1395 1395 0 1395 0 0 -1395z"/>
<path d="M2365 2168 c-9 -13 -31 -48 -48 -78 -57 -98 -140 -135 -357 -160
-155 -17 -962 -34 -1059 -21 -109 14 -157 14 -219 0 -47 -10 -52 -14 -80 -67
-17 -31 -51 -118 -77 -192 -93 -267 -135 -334 -260 -415 -96 -62 -111 -88 -78
-133 27 -36 59 -39 90 -10 36 33 139 167 222 288 40 58 77 105 84 105 24 0 67
-342 67 -527 l0 -103 -257 -257 -258 -258 83 -82 82 -83 223 223 222 222 670
0 670 0 215 -215 215 -215 85 86 85 86 -240 234 -240 234 -154 0 -154 0 5 98
c7 127 31 185 120 298 79 100 112 160 123 221 10 62 26 71 81 45 83 -41 202
-20 252 43 16 21 22 41 22 81 0 46 -9 71 -60 171 l-60 118 15 87 c18 96 17
189 -2 195 -6 2 -19 -6 -28 -19z m-120 -304 c21 -8 49 -13 64 -9 33 7 44 -4
95 -100 21 -38 43 -73 50 -77 6 -4 11 -30 11 -59 0 -43 -4 -54 -27 -74 -56
-48 -188 -53 -233 -9 -24 24 -19 65 12 89 34 28 27 57 -27 120 -46 53 -48 66
-19 106 24 34 25 34 74 13z m-1053 -10 c5 -3 8 -18 8 -34 0 -34 4 -38 106
-114 92 -67 146 -134 163 -203 31 -121 65 -171 175 -258 70 -55 21 -85 -139
-85 -120 1 -158 10 -305 80 -69 32 -159 70 -200 84 -74 24 -99 49 -63 60 10 3
56 10 102 16 105 12 121 25 121 95 0 75 -35 138 -121 215 -63 55 -99 107 -99
139 0 18 225 22 252 5z m898 -289 c23 -28 8 -126 -29 -186 -68 -112 -119 -155
-90 -76 10 29 10 48 -3 108 -20 87 -12 109 46 144 48 29 59 30 76 10z m-1065
-309 c44 -18 134 -59 201 -90 135 -63 191 -76 337 -76 94 0 100 -1 126 -28 23
-22 30 -42 39 -105 7 -43 12 -89 12 -102 l0 -25 -480 0 -481 0 7 53 c26 220
94 408 146 407 7 0 49 -15 93 -34z m-235 -158 c0 -2 -9 -37 -20 -78 -11 -41
-20 -91 -20 -110 -1 -62 -10 -80 -40 -80 l-28 0 2 128 3 127 29 6 c31 7 74 11
74 7z m1090 -50 c0 -7 -7 -40 -15 -73 -8 -33 -14 -79 -15 -102 0 -42 -1 -43
-34 -43 -41 0 -46 10 -46 94 0 69 8 84 60 115 40 24 50 26 50 9z"/>
</g>
</svg>
