<?xml version="1.0" standalone="no"?>
<!DOCTYPE svg PUBLIC "-//W3C//DTD SVG 20010904//EN"
 "http://www.w3.org/TR/2001/REC-SVG-20010904/DTD/svg10.dtd">
<svg version="1.0" xmlns="http://www.w3.org/2000/svg"
 width="286.000000pt" height="285.000000pt" viewBox="0 0 286.000000 285.000000"
 preserveAspectRatio="xMidYMid meet">
<metadata>
Created by potrace 1.13, written by Peter Selinger 2001-2015
</metadata>
<g transform="translate(0.000000,285.000000) scale(0.100000,-0.100000)"
fill="#000000" stroke="none">
<path d="M10 1425 l0 -1415 1420 0 1420 0 0 1415 0 1415 -1420 0 -1420 0 0
-1415z m2810 0 l0 -1395 -1390 0 -1390 0 0 1395 0 1395 1390 0 1390 0 0 -1395z"/>
<path d="M390 2240 l0 -70 1080 0 1080 0 0 70 0 70 -1080 0 -1080 0 0 -70z"/>
<path d="M904 1905 c-235 -51 -384 -253 -384 -520 0 -319 196 -514 517 -515
126 0 314 45 333 80 6 11 10 116 10 248 0 209 -2 230 -18 245 -16 15 -46 17
-205 17 -210 0 -207 1 -207 -80 0 -76 7 -80 125 -80 l105 0 0 -115 0 -115 -27
-12 c-16 -7 -66 -12 -113 -12 -102 -1 -157 20 -219 84 -63 65 -85 133 -86 265
0 98 3 116 26 165 55 117 143 179 268 188 85 6 153 -9 254 -56 42 -19 80 -32
84 -28 12 11 15 120 5 147 -31 80 -293 132 -468 94z"/>
<path d="M1900 1910 c-124 -26 -237 -116 -296 -235 -50 -101 -67 -196 -61
-330 14 -292 154 -455 408 -472 128 -9 290 31 324 81 17 23 20 132 5 156 -7
12 -22 8 -87 -25 -73 -37 -84 -40 -163 -40 -92 0 -143 18 -186 67 -94 102
-113 351 -39 499 76 149 247 182 403 78 24 -16 47 -29 52 -29 18 0 30 39 30
95 0 48 -4 61 -28 84 -60 61 -241 96 -362 71z"/>
<path d="M390 515 l0 -75 1070 0 1070 0 0 75 0 75 -1070 0 -1070 0 0 -75z"/>
</g>
</svg>
