<?xml version="1.0" standalone="no"?>
<!DOCTYPE svg PUBLIC "-//W3C//DTD SVG 20010904//EN"
 "http://www.w3.org/TR/2001/REC-SVG-20010904/DTD/svg10.dtd">
<svg version="1.0" xmlns="http://www.w3.org/2000/svg"
 width="286.000000pt" height="285.000000pt" viewBox="0 0 286.000000 285.000000"
 preserveAspectRatio="xMidYMid meet">
<metadata>
Created by potrace 1.13, written by Peter Selinger 2001-2015
</metadata>
<g transform="translate(0.000000,285.000000) scale(0.100000,-0.100000)"
fill="#000000" stroke="none">
<path d="M10 1425 l0 -1415 1420 0 1420 0 0 1415 0 1415 -1420 0 -1420 0 0
-1415z m2810 0 l0 -1395 -1390 0 -1390 0 0 1395 0 1395 1390 0 1390 0 0 -1395z"/>
<path d="M90 2215 l0 -105 480 0 480 0 0 105 0 105 -480 0 -480 0 0 -105z"/>
<path d="M1760 2210 l0 -100 475 0 475 0 0 100 0 100 -475 0 -475 0 0 -100z"/>
<path d="M1034 1905 c-235 -51 -384 -253 -384 -520 0 -319 196 -514 517 -515
126 0 314 45 333 80 6 11 10 116 10 248 0 209 -2 230 -18 245 -16 15 -46 17
-205 17 -210 0 -207 1 -207 -80 0 -76 7 -80 125 -80 l105 0 0 -115 0 -115 -27
-12 c-16 -7 -66 -12 -113 -12 -102 -1 -157 20 -219 84 -63 65 -85 133 -86 265
0 98 3 116 26 165 55 117 143 179 268 188 85 6 153 -9 254 -56 42 -19 80 -32
84 -28 12 11 15 120 5 147 -31 80 -293 132 -468 94z"/>
<path d="M1905 1907 c-132 -35 -211 -123 -222 -248 -7 -78 11 -146 55 -205 32
-42 56 -59 177 -121 151 -77 195 -114 195 -164 0 -134 -192 -171 -372 -71 -61
34 -78 22 -78 -54 0 -79 11 -98 72 -127 216 -101 481 -34 562 142 16 35 21 66
21 131 0 146 -50 206 -257 309 -114 56 -136 71 -153 102 -25 47 -13 102 28
133 47 35 144 30 235 -13 87 -41 92 -38 92 55 0 50 -4 64 -22 81 -54 50 -231
76 -333 50z"/>
<path d="M1760 540 l0 -90 480 0 480 0 0 90 0 90 -480 0 -480 0 0 -90z"/>
<path d="M80 535 l0 -85 480 0 480 0 0 85 0 85 -480 0 -480 0 0 -85z"/>
</g>
</svg>
