<?xml version="1.0" standalone="no"?>
<!DOCTYPE svg PUBLIC "-//W3C//DTD SVG 20010904//EN"
 "http://www.w3.org/TR/2001/REC-SVG-20010904/DTD/svg10.dtd">
<svg version="1.0" xmlns="http://www.w3.org/2000/svg"
 width="286.000000pt" height="286.000000pt" viewBox="0 0 286.000000 286.000000"
 preserveAspectRatio="xMidYMid meet">
<metadata>
Created by potrace 1.13, written by Peter Selinger 2001-2015
</metadata>
<g transform="translate(0.000000,286.000000) scale(0.100000,-0.100000)"
fill="#000000" stroke="none">
<path d="M10 1430 l0 -1420 1420 0 1420 0 0 1420 0 1420 -1420 0 -1420 0 0
-1420z m2810 0 l0 -1390 -1390 0 -1390 0 0 1390 0 1390 1390 0 1390 0 0 -1390z"/>
<path d="M1430 2720 c-8 -5 -37 -19 -63 -30 -144 -63 -207 -229 -140 -366 31
-63 71 -103 146 -141 46 -24 64 -27 152 -27 90 -1 106 2 156 27 104 50 179
159 179 257 0 93 -75 205 -166 248 -27 13 -57 27 -66 33 -22 12 -178 11 -198
-1z"/>
<path d="M1370 2059 c-87 -20 -218 -51 -250 -58 -43 -10 -223 -82 -276 -111
-185 -103 -372 -250 -410 -322 -46 -89 22 -188 129 -188 64 0 96 18 193 109
45 42 117 97 160 123 108 65 228 118 244 108 10 -6 5 -33 -20 -121 -17 -63
-36 -125 -41 -139 -4 -14 -20 -70 -35 -125 -24 -91 -25 -103 -13 -152 l12 -54
-59 -60 c-194 -198 -411 -290 -739 -314 -53 -4 -100 -13 -115 -22 -75 -46 -93
-127 -43 -184 45 -50 76 -61 173 -60 335 4 679 141 919 367 45 42 87 74 94 71
31 -12 141 -103 209 -175 87 -91 160 -196 208 -297 44 -96 47 -102 65 -170 9
-33 24 -76 33 -95 23 -46 87 -89 135 -90 43 0 108 36 133 75 51 79 -55 378
-212 596 -74 102 -209 240 -306 313 -43 32 -78 60 -78 61 0 2 9 34 20 71 11
38 28 94 36 124 9 30 20 69 25 85 28 97 38 133 43 156 8 38 24 40 81 13 76
-37 191 -73 285 -91 114 -21 322 -20 371 1 41 17 86 65 95 102 9 36 -23 91
-70 123 -37 25 -46 26 -145 23 -124 -3 -241 17 -350 60 -88 34 -158 80 -261
167 -106 90 -145 103 -240 80z"/>
</g>
</svg>
