<?xml version="1.0" standalone="no"?>
<!DOCTYPE svg PUBLIC "-//W3C//DTD SVG 20010904//EN"
 "http://www.w3.org/TR/2001/REC-SVG-20010904/DTD/svg10.dtd">
<svg version="1.0" xmlns="http://www.w3.org/2000/svg"
 width="286.000000pt" height="286.000000pt" viewBox="0 0 286.000000 286.000000"
 preserveAspectRatio="xMidYMid meet">
<metadata>
Created by potrace 1.13, written by Peter Selinger 2001-2015
</metadata>
<g transform="translate(0.000000,286.000000) scale(0.100000,-0.100000)"
fill="#000000" stroke="none">
<path d="M10 1430 l0 -1420 1415 0 1415 0 0 1420 0 1420 -1415 0 -1415 0 0
-1420z m2810 0 l0 -1390 -1395 0 -1395 0 0 1390 0 1390 1395 0 1395 0 0 -1390z"/>
<path d="M160 2115 l0 -75 1285 0 1286 0 -3 73 -3 72 -1282 3 -1283 2 0 -75z"/>
<path d="M1264 1977 c-2 -7 -3 -109 -2 -227 l3 -215 40 0 40 0 3 93 3 92 28 0
c37 0 60 -27 96 -113 l31 -72 48 -3 48 -3 -7 28 c-12 51 -74 173 -89 179 -12
5 -9 11 16 28 44 29 60 62 55 114 -6 52 -36 88 -86 102 -54 15 -220 13 -227
-3z m196 -77 c11 -11 20 -30 20 -43 0 -41 -23 -59 -78 -65 l-52 -5 0 67 0 66
45 0 c32 0 51 -6 65 -20z"/>
<path d="M1233 1465 c-280 -44 -547 -183 -733 -382 -131 -140 -236 -326 -280
-497 -19 -76 -45 -245 -39 -250 2 -2 77 -6 167 -9 l162 -6 0 42 c0 112 70 304
154 421 49 69 159 177 231 226 70 48 203 108 297 132 119 32 366 31 483 0 99
-27 229 -89 309 -146 70 -51 178 -160 225 -229 72 -106 141 -294 141 -386 0
-60 0 -60 174 -54 l158 6 -6 61 c-30 282 -142 514 -346 718 -284 283 -697 415
-1097 353z"/>
</g>
</svg>
