<?xml version="1.0" standalone="no"?>
<!DOCTYPE svg PUBLIC "-//W3C//DTD SVG 20010904//EN"
 "http://www.w3.org/TR/2001/REC-SVG-20010904/DTD/svg10.dtd">
<svg version="1.0" xmlns="http://www.w3.org/2000/svg"
 width="285.000000pt" height="286.000000pt" viewBox="0 0 285.000000 286.000000"
 preserveAspectRatio="xMidYMid meet">
<metadata>
Created by potrace 1.13, written by Peter Selinger 2001-2015
</metadata>
<g transform="translate(0.000000,286.000000) scale(0.100000,-0.100000)"
fill="#000000" stroke="none">
<path d="M10 1425 l0 -1415 1415 0 1415 0 0 1415 0 1415 -1415 0 -1415 0 0
-1415z m2810 0 l0 -1395 -1395 0 -1395 0 0 1395 0 1395 1395 0 1395 0 0 -1395z"/>
<path d="M192 2122 c-8 -21 13 -1800 21 -1808 4 -4 12 -3 18 3 6 6 66 8 162 5
l153 -5 12 88 c26 177 103 334 230 467 184 193 416 291 687 290 254 0 467 -83
647 -251 154 -144 249 -330 273 -533 l7 -56 119 -4 c65 -2 151 -1 191 2 l73 5
-3 899 c-1 495 -4 901 -5 902 -1 1 -582 4 -1291 6 -1071 2 -1289 1 -1294 -10z
m1418 -258 c44 -18 70 -55 70 -99 0 -30 -24 -81 -42 -89 -10 -5 -10 -7 0 -12
7 -3 25 -16 40 -29 23 -20 27 -31 27 -80 0 -51 -3 -59 -32 -85 -44 -39 -96
-51 -205 -48 l-93 3 -3 215 c-1 118 0 220 2 227 8 20 185 17 236 -3z"/>
<path d="M1460 1555 l0 -65 55 0 c61 0 95 22 95 63 0 44 -36 67 -104 67 l-46
0 0 -65z"/>
</g>
</svg>
