<?xml version="1.0" standalone="no"?>
<!DOCTYPE svg PUBLIC "-//W3C//DTD SVG 20010904//EN"
 "http://www.w3.org/TR/2001/REC-SVG-20010904/DTD/svg10.dtd">
<svg version="1.0" xmlns="http://www.w3.org/2000/svg"
 width="286.000000pt" height="286.000000pt" viewBox="0 0 286.000000 286.000000"
 preserveAspectRatio="xMidYMid meet">
<metadata>
Created by potrace 1.13, written by Peter Selinger 2001-2015
</metadata>
<g transform="translate(0.000000,286.000000) scale(0.100000,-0.100000)"
fill="#000000" stroke="none">
<path d="M10 1430 l0 -1420 1415 0 1415 0 0 1420 0 1420 -1415 0 -1415 0 0
-1420z m2810 0 l0 -1390 -1395 0 -1395 0 0 1390 0 1390 1395 0 1395 0 0 -1390z"/>
<path d="M243 2188 c-4 -7 -9 -435 -11 -951 l-2 -937 1197 2 1198 3 3 938 c2
923 2 937 -17 937 -11 0 -23 5 -26 10 -10 16 -2331 14 -2342 -2z m2076 -319
l201 -221 0 -416 0 -417 -217 -207 -217 -208 -676 0 -675 0 -197 191 -198 191
0 424 0 425 206 230 205 229 684 0 683 0 201 -221z"/>
</g>
</svg>
