<?xml version="1.0" standalone="no"?>
<!DOCTYPE svg PUBLIC "-//W3C//DTD SVG 20010904//EN"
 "http://www.w3.org/TR/2001/REC-SVG-20010904/DTD/svg10.dtd">
<svg version="1.0" xmlns="http://www.w3.org/2000/svg"
 width="286.000000pt" height="286.000000pt" viewBox="0 0 286.000000 286.000000"
 preserveAspectRatio="xMidYMid meet">
<metadata>
Created by potrace 1.13, written by Peter Selinger 2001-2015
</metadata>
<g transform="translate(0.000000,286.000000) scale(0.100000,-0.100000)"
fill="#000000" stroke="none">
<path d="M10 1430 l0 -1420 1420 0 1420 0 0 1420 0 1420 -1420 0 -1420 0 0
-1420z m2810 0 l0 -1390 -1390 0 -1390 0 0 1390 0 1390 1390 0 1390 0 0 -1390z"/>
<path d="M1290 2085 c-405 -68 -729 -417 -834 -896 -14 -62 -14 -56 -15 164
-1 128 -5 236 -11 247 -5 10 -23 23 -40 28 -28 10 -30 14 -30 66 0 45 -4 58
-22 70 -29 20 -67 20 -96 0 -19 -13 -22 -24 -22 -75 0 -52 -2 -59 -20 -59 -11
0 -29 -9 -40 -20 -19 -19 -20 -33 -20 -533 0 -448 2 -515 16 -535 14 -21 23
-22 134 -22 148 0 150 2 150 132 l0 88 990 0 990 0 0 -93 c0 -125 2 -127 146
-127 79 0 116 4 130 14 18 14 19 33 22 522 3 552 2 560 -49 571 -28 5 -29 8
-29 59 0 63 -23 94 -69 94 -49 0 -73 -29 -79 -93 -3 -39 -9 -57 -18 -57 -8 0
-23 -9 -34 -20 -19 -19 -20 -34 -21 -247 -1 -220 -2 -226 -15 -168 -28 116
-65 221 -115 321 -159 319 -428 526 -746 573 -89 14 -157 13 -253 -4z m189
-567 c0 -183 -2 -328 -4 -323 -6 15 -155 637 -155 647 0 4 36 8 80 8 l80 0 -1
-332z m304 246 l37 -18 -1 -260 c0 -144 -2 -256 -5 -251 -3 10 -115 481 -129
543 l-7 33 34 -14 c18 -8 50 -23 71 -33z m-643 -336 c0 -199 -2 -359 -4 -357
-6 5 -146 594 -149 623 -1 14 16 29 68 57 39 21 73 39 78 39 4 0 7 -163 7
-362z m555 -74 c41 -176 75 -324 75 -327 0 -4 -36 -7 -80 -7 l-80 0 1 338 c0
185 2 333 4 327 2 -5 38 -154 80 -331z m-350 -3 c41 -172 75 -317 75 -322 0
-5 -36 -9 -80 -9 l-80 0 0 327 c0 179 2 324 5 321 3 -2 39 -145 80 -317z m680
-49 c36 -150 65 -275 65 -277 0 -3 -31 -5 -70 -5 l-70 0 1 288 c0 158 2 283 5
277 2 -5 33 -133 69 -283z m-1035 -13 c33 -141 60 -259 60 -262 0 -4 -29 -7
-65 -7 l-65 0 1 273 c0 149 2 268 4 262 3 -5 32 -125 65 -266z m1150 129 c22
-37 50 -89 61 -115 26 -61 69 -219 69 -255 0 -26 -3 -28 -45 -28 -25 0 -45 2
-45 5 0 3 -21 92 -46 198 -25 105 -52 219 -59 252 l-14 60 20 -25 c11 -14 37
-55 59 -92z m-1351 -100 l-1 -203 -33 135 c-19 74 -34 144 -35 156 0 18 55
114 66 114 2 0 4 -91 3 -202z m-85 -235 l14 -63 -69 0 c-79 0 -74 -15 -43 120
9 41 24 91 32 110 l15 35 18 -70 c10 -38 25 -98 33 -132z"/>
</g>
</svg>
