<?xml version="1.0" standalone="no"?>
<!DOCTYPE svg PUBLIC "-//W3C//DTD SVG 20010904//EN"
 "http://www.w3.org/TR/2001/REC-SVG-20010904/DTD/svg10.dtd">
<svg version="1.0" xmlns="http://www.w3.org/2000/svg"
 width="291.000000pt" height="286.000000pt" viewBox="0 0 291.000000 286.000000"
 preserveAspectRatio="xMidYMid meet">
<metadata>
Created by potrace 1.13, written by Peter Selinger 2001-2015
</metadata>
<g transform="translate(0.000000,286.000000) scale(0.100000,-0.100000)"
fill="#000000" stroke="none">
<path d="M10 1430 l0 -1420 1420 0 1420 0 0 1420 0 1420 -1420 0 -1420 0 0
-1420z m2561 398 c30 -14 68 -37 86 -52 71 -60 108 -201 84 -316 -22 -102
-101 -187 -197 -211 l-41 -11 -6 -80 c-3 -44 -8 -82 -12 -86 -10 -10 -139 -14
-153 -4 -10 7 -15 45 -19 129 -7 139 0 153 70 153 60 0 108 28 135 81 20 37
23 55 19 108 -5 67 -21 98 -71 135 -41 31 -161 29 -234 -4 -66 -29 -73 -22
-70 64 3 56 5 61 37 80 90 52 274 59 372 14z m-1726 -58 c33 -13 72 -36 87
-51 24 -23 28 -36 28 -84 0 -56 -12 -95 -30 -95 -5 0 -28 13 -52 29 -156 104
-327 71 -403 -78 -74 -148 -55 -397 39 -499 43 -49 94 -67 186 -67 79 0 90 3
163 40 92 46 97 43 97 -50 0 -74 -14 -95 -77 -123 -159 -68 -383 -49 -502 43
-104 81 -159 208 -168 390 -6 134 11 229 61 330 59 119 172 209 296 235 74 15
207 5 275 -20z m838 15 c227 -48 340 -235 324 -540 -8 -161 -45 -264 -125
-356 -102 -115 -308 -166 -505 -124 -227 48 -340 235 -324 540 9 169 50 279
137 365 111 112 300 156 493 115z m790 -816 c32 -14 47 -49 47 -104 0 -82 -32
-115 -110 -115 -78 0 -110 33 -110 115 0 54 15 90 44 103 28 14 99 15 129 1z"/>
<path d="M1440 1617 c-57 -18 -126 -95 -147 -163 -25 -82 -25 -286 0 -367 24
-78 74 -132 140 -152 109 -32 199 -14 267 55 66 65 85 130 85 290 0 159 -18
223 -79 284 -61 61 -170 83 -266 53z"/>
</g>
</svg>
