<?xml version="1.0" standalone="no"?>
<!DOCTYPE svg PUBLIC "-//W3C//DTD SVG 20010904//EN"
 "http://www.w3.org/TR/2001/REC-SVG-20010904/DTD/svg10.dtd">
<svg version="1.0" xmlns="http://www.w3.org/2000/svg"
 width="286.000000pt" height="286.000000pt" viewBox="0 0 286.000000 286.000000"
 preserveAspectRatio="xMidYMid meet">
<metadata>
Created by potrace 1.13, written by Peter Selinger 2001-2015
</metadata>
<g transform="translate(0.000000,286.000000) scale(0.100000,-0.100000)"
fill="#000000" stroke="none">
<path d="M10 1430 l0 -1420 1420 0 1420 0 0 1420 0 1420 -1420 0 -1420 0 0
-1420z m2810 0 l0 -1390 -1390 0 -1390 0 0 1390 0 1390 1390 0 1390 0 0 -1390z"/>
<path d="M1245 2453 c-429 -54 -786 -288 -958 -628 -114 -226 -134 -484 -56
-720 93 -280 288 -495 574 -635 167 -81 277 -112 472 -131 321 -33 655 61 915
256 229 173 375 420 409 695 69 548 -377 1061 -1003 1154 -95 14 -275 19 -353
9z m282 -84 c487 -54 872 -379 959 -809 13 -65 15 -112 11 -205 -8 -168 -44
-282 -131 -427 -43 -71 -136 -188 -149 -188 -6 0 -1478 1292 -1557 1367 -18
17 -6 28 119 103 223 133 485 189 748 159z m-129 -1038 c408 -360 742 -658
742 -662 0 -16 -190 -125 -290 -165 -257 -105 -570 -115 -835 -29 -216 71
-409 206 -539 379 -267 355 -244 806 58 1158 l40 46 41 -36 c23 -20 375 -331
783 -691z"/>
<path d="M875 2205 c-50 -25 -103 -55 -118 -68 l-29 -23 496 -437 c468 -413
500 -439 574 -470 159 -68 311 -190 397 -320 l39 -58 18 23 c76 97 144 227
173 333 41 150 28 364 -32 515 -85 213 -280 415 -498 516 l-74 34 -428 0 -429
0 -89 -45z"/>
<path d="M525 1923 c-56 -70 -137 -234 -161 -323 -13 -46 -18 -104 -18 -200
-1 -159 15 -230 79 -365 43 -90 142 -230 163 -230 6 0 29 29 52 64 141 217
380 366 652 405 l82 11 -393 348 c-217 191 -398 347 -402 347 -5 0 -29 -26
-54 -57z"/>
<path d="M141 1898 c1 -318 2 -347 14 -293 50 225 184 444 367 596 l59 49
-220 0 -221 0 1 -352z"/>
<path d="M2267 2201 c290 -244 433 -601 379 -946 -33 -213 -110 -377 -260
-549 l-66 -75 9 -43 c5 -24 12 -68 15 -98 l7 -55 184 0 c122 1 189 5 196 12 8
8 9 252 2 904 l-8 894 -258 3 -258 2 58 -49z"/>
<path d="M151 865 c-1 -181 2 -352 5 -380 l6 -50 169 0 169 0 0 35 c0 19 5 54
10 76 l9 41 -73 76 c-131 135 -228 298 -275 462 l-20 70 0 -330z"/>
</g>
</svg>
