<?xml version="1.0" standalone="no"?>
<!DOCTYPE svg PUBLIC "-//W3C//DTD SVG 20010904//EN"
 "http://www.w3.org/TR/2001/REC-SVG-20010904/DTD/svg10.dtd">
<svg version="1.0" xmlns="http://www.w3.org/2000/svg"
 width="286.000000pt" height="286.000000pt" viewBox="0 0 286.000000 286.000000"
 preserveAspectRatio="xMidYMid meet">
<metadata>
Created by potrace 1.13, written by Peter Selinger 2001-2015
</metadata>
<g transform="translate(0.000000,286.000000) scale(0.100000,-0.100000)"
fill="#000000" stroke="none">
<path d="M10 1435 l0 -1415 1420 0 1420 0 0 1415 0 1415 -1420 0 -1420 0 0
-1415z m2810 0 l0 -1395 -1390 0 -1390 0 0 1395 0 1395 1390 0 1390 0 0 -1395z"/>
<path d="M720 1400 l0 -1000 675 0 675 0 0 1000 0 1000 -675 0 -675 0 0 -1000z
m1160 440 l0 -430 -485 0 -485 0 0 430 0 430 485 0 485 0 0 -430z"/>
</g>
</svg>
