<?xml version="1.0" standalone="no"?>
<!DOCTYPE svg PUBLIC "-//W3C//DTD SVG 20010904//EN"
 "http://www.w3.org/TR/2001/REC-SVG-20010904/DTD/svg10.dtd">
<svg version="1.0" xmlns="http://www.w3.org/2000/svg"
 width="298.000000pt" height="287.000000pt" viewBox="0 0 298.000000 287.000000"
 preserveAspectRatio="xMidYMid meet">
<metadata>
Created by potrace 1.13, written by Peter Selinger 2001-2015
</metadata>
<g transform="translate(0.000000,287.000000) scale(0.100000,-0.100000)"
fill="#000000" stroke="none">
<path d="M10 1440 l0 -1420 1420 0 1420 0 0 1420 0 1420 -1420 0 -1420 0 0
-1420z m2810 0 l0 -1390 -1390 0 -1390 0 0 1390 0 1390 1390 0 1390 0 0 -1390z"/>
<path d="M981 2235 c-19 -13 -118 -110 -220 -214 -155 -158 -195 -194 -241
-214 -42 -18 -72 -43 -125 -102 -39 -43 -84 -84 -101 -91 -76 -32 -168 -119
-198 -189 -32 -74 -36 -90 -36 -155 0 -54 5 -78 27 -120 14 -28 38 -59 52 -69
119 -82 413 -199 675 -269 81 -21 125 -26 223 -27 144 -1 147 -3 208 -118 20
-39 48 -87 62 -105 22 -29 29 -32 79 -32 75 0 190 42 244 88 23 21 70 51 103
68 98 49 105 86 33 173 -20 23 -36 47 -36 51 0 25 137 82 303 125 144 37 200
11 502 -235 124 -100 211 -160 236 -160 16 0 19 7 19 41 0 23 -4 58 -10 78
-32 121 -72 328 -81 419 -9 97 -7 130 20 353 32 251 39 415 21 450 -13 24 -83
26 -127 4 -59 -29 -123 -109 -123 -153 0 -30 -22 -71 -52 -98 -75 -69 -244
-124 -378 -124 l-88 0 -53 45 c-41 35 -61 45 -88 45 -75 0 -151 62 -151 122 0
13 12 41 26 62 19 28 28 56 32 101 4 57 2 66 -20 88 -19 19 -39 25 -98 31
-121 12 -403 90 -493 136 -52 27 -104 25 -146 -5z m181 -395 c143 -28 248 -62
371 -120 265 -123 475 -190 598 -190 145 0 268 64 444 231 54 52 79 69 86 62
11 -11 4 -78 -22 -228 -26 -151 -21 -275 21 -520 11 -61 22 -143 26 -183 7
-68 6 -72 -12 -66 -10 4 -100 68 -199 142 -99 74 -204 146 -232 159 -71 33
-140 38 -250 19 -124 -22 -168 -39 -218 -85 -41 -38 -94 -59 -200 -82 -120
-26 -879 -20 -950 7 -21 8 -14 30 40 124 76 132 90 190 90 380 0 120 -4 171
-13 189 -23 39 -41 6 -57 -105 -44 -289 -52 -320 -108 -408 -17 -27 -38 -63
-46 -80 -20 -40 -61 -45 -136 -18 -118 43 -185 101 -185 161 0 14 -5 51 -12
82 -15 74 -5 96 64 142 29 20 96 79 148 133 139 141 188 170 348 210 52 13
104 30 116 38 26 18 207 22 288 6z"/>
</g>
</svg>
