<?xml version="1.0" standalone="no"?>
<!DOCTYPE svg PUBLIC "-//W3C//DTD SVG 20010904//EN"
 "http://www.w3.org/TR/2001/REC-SVG-20010904/DTD/svg10.dtd">
<svg version="1.0" xmlns="http://www.w3.org/2000/svg"
 width="286.000000pt" height="286.000000pt" viewBox="0 0 286.000000 286.000000"
 preserveAspectRatio="xMidYMid meet">
<metadata>
Created by potrace 1.13, written by Peter Selinger 2001-2015
</metadata>
<g transform="translate(0.000000,286.000000) scale(0.100000,-0.100000)"
fill="#000000" stroke="none">
<path d="M10 1425 l0 -1415 1415 0 1415 0 0 1415 0 1415 -1415 0 -1415 0 0
-1415z m2810 5 l0 -1390 -1395 0 -1395 0 0 1390 0 1390 1395 0 1395 0 0 -1390z"/>
<path d="M1624 2076 c-70 -31 -113 -129 -121 -273 -9 -151 31 -289 94 -330
l27 -18 -74 -6 c-41 -4 -148 -7 -237 -8 l-163 -1 0 -120 0 -120 -235 0 -235 0
0 -140 0 -140 -260 0 -260 0 0 -210 0 -210 1194 0 c656 0 1214 3 1240 6 l46 7
0 468 0 469 -31 0 -31 0 31 29 c105 98 121 403 28 542 -46 70 -41 69 -537 69
-352 -1 -452 -4 -476 -14z m90 -50 c113 -119 92 -491 -30 -542 -41 -17 -62 -9
-97 39 -92 123 -82 410 18 510 37 37 70 35 109 -7z m886 -5 c54 -57 73 -136
68 -282 -4 -125 -26 -195 -75 -241 l-25 -23 -425 -3 -425 -3 25 30 c89 106 96
392 12 515 -14 20 -25 39 -25 41 0 3 187 5 417 5 l416 0 37 -39z"/>
</g>
</svg>
