<?xml version="1.0" standalone="no"?>
<!DOCTYPE svg PUBLIC "-//W3C//DTD SVG 20010904//EN"
 "http://www.w3.org/TR/2001/REC-SVG-20010904/DTD/svg10.dtd">
<svg version="1.0" xmlns="http://www.w3.org/2000/svg"
 width="285.000000pt" height="286.000000pt" viewBox="0 0 285.000000 286.000000"
 preserveAspectRatio="xMidYMid meet">
<metadata>
Created by potrace 1.13, written by Peter Selinger 2001-2015
</metadata>
<g transform="translate(0.000000,286.000000) scale(0.100000,-0.100000)"
fill="#000000" stroke="none">
<path d="M10 1430 l0 -1420 1415 0 1415 0 0 1420 0 1420 -1415 0 -1415 0 0
-1420z m2810 0 l0 -1390 -1395 0 -1395 0 0 1390 0 1390 1395 0 1395 0 0 -1390z"/>
<path d="M1584 2180 c-76 -15 -202 -71 -299 -132 l-98 -61 -101 7 c-96 6 -107
9 -216 61 -210 100 -308 122 -412 91 -31 -9 -69 -16 -86 -16 -36 0 -65 -28
-123 -116 -37 -58 -43 -74 -49 -143 -8 -87 -13 -101 -40 -101 -11 0 -36 -11
-56 -25 l-37 -25 37 0 c45 0 46 -11 4 -29 l-33 -14 58 -7 c43 -6 66 -14 86
-34 31 -29 54 -33 148 -21 45 6 67 4 78 -5 8 -7 15 -9 15 -5 0 5 9 0 20 -10
22 -20 26 -14 10 16 -13 23 -3 25 21 3 16 -15 17 -13 9 20 -4 20 -4 36 0 36 9
0 153 -150 199 -209 l33 -41 -34 0 c-18 0 -61 -10 -94 -22 l-62 -22 0 -43 c-1
-23 3 -45 8 -48 6 -4 10 -15 10 -26 0 -15 5 -19 18 -15 59 18 72 18 72 2 0 -9
8 -16 18 -16 25 0 131 37 148 51 18 14 19 -5 3 -50 -8 -21 -19 -33 -37 -37
-50 -11 -67 -16 -98 -31 -28 -12 -31 -18 -32 -60 0 -37 3 -46 19 -50 12 -3 19
-14 19 -29 0 -22 2 -23 27 -11 21 9 27 9 31 -1 7 -22 27 -12 95 48 62 55 125
102 228 172 75 49 155 61 392 56 240 -5 261 -10 330 -87 42 -47 43 -51 21 -93
-9 -16 -22 -48 -30 -70 l-14 -40 26 6 c25 7 26 5 20 -20 -7 -28 -8 -27 40 -7
6 2 14 -5 17 -17 5 -21 7 -21 37 -5 18 9 39 14 48 10 10 -4 31 10 61 39 25 24
80 69 121 100 60 45 82 56 113 56 106 0 177 -83 177 -209 0 -81 -58 -143 -171
-182 -54 -19 -85 -22 -199 -22 -74 0 -202 8 -285 17 -162 19 -271 16 -405 -10
-87 -18 -204 -71 -240 -109 l-25 -26 90 8 c226 20 335 10 620 -56 193 -44 283
-55 414 -48 193 10 278 42 360 134 189 212 172 473 -54 812 -35 53 -82 136
-105 186 -161 351 -426 538 -755 534 -38 -1 -88 -5 -111 -9z"/>
</g>
</svg>
