<?xml version="1.0" standalone="no"?>
<!DOCTYPE svg PUBLIC "-//W3C//DTD SVG 20010904//EN"
 "http://www.w3.org/TR/2001/REC-SVG-20010904/DTD/svg10.dtd">
<svg version="1.0" xmlns="http://www.w3.org/2000/svg"
 width="286.000000pt" height="286.000000pt" viewBox="0 0 286.000000 286.000000"
 preserveAspectRatio="xMidYMid meet">
<metadata>
Created by potrace 1.13, written by Peter Selinger 2001-2015
</metadata>
<g transform="translate(0.000000,286.000000) scale(0.100000,-0.100000)"
fill="#000000" stroke="none">
<path d="M10 1425 l0 -1415 1420 0 1420 0 0 1415 0 1415 -1420 0 -1420 0 0
-1415z m2810 0 l0 -1395 -1390 0 -1390 0 0 1395 0 1395 1390 0 1390 0 0 -1395z"/>
<path d="M204 1996 c-3 -8 -4 -31 -2 -52 l3 -39 258 -3 257 -2 0 -299 c0 -284
6 -361 31 -361 24 0 29 54 29 349 l0 311 445 0 445 0 0 -291 c-1 -219 2 -294
11 -306 11 -13 14 -13 26 3 10 14 13 85 13 306 l0 288 395 0 395 0 0 -349 c0
-192 3 -356 6 -365 8 -21 30 -21 38 0 3 9 6 173 6 365 l0 349 75 0 75 0 0 55
0 55 -1250 0 c-1061 0 -1251 -2 -1256 -14z"/>
<path d="M237 1483 c-4 -3 -7 -159 -7 -345 l0 -338 -35 0 -35 0 0 -55 0 -55
1253 2 1252 3 0 50 0 50 -287 3 -287 2 -3 300 c-2 231 -6 302 -16 312 -11 11
-16 10 -28 -6 -11 -16 -14 -74 -14 -313 l0 -293 -400 0 -400 0 0 304 c0 167
-3 311 -6 320 -3 9 -12 16 -19 16 -7 0 -16 -7 -19 -16 -3 -9 -6 -153 -6 -320
l0 -304 -450 0 -450 0 0 329 c0 181 -3 336 -6 345 -6 16 -26 21 -37 9z"/>
</g>
</svg>
