<?xml version="1.0" standalone="no"?>
<!DOCTYPE svg PUBLIC "-//W3C//DTD SVG 20010904//EN"
 "http://www.w3.org/TR/2001/REC-SVG-20010904/DTD/svg10.dtd">
<svg version="1.0" xmlns="http://www.w3.org/2000/svg"
 width="290.000000pt" height="286.000000pt" viewBox="0 0 290.000000 286.000000"
 preserveAspectRatio="xMidYMid meet">
<metadata>
Created by potrace 1.13, written by Peter Selinger 2001-2015
</metadata>
<g transform="translate(0.000000,286.000000) scale(0.100000,-0.100000)"
fill="#888888" stroke="none">
<path d="M10 1430 l0 -1420 1415 0 1415 0 0 1420 0 1420 -1415 0 -1415 0 0
-1420z m2511 398 c30 -14 68 -37 86 -52 71 -60 108 -201 84 -316 -22 -102
-101 -187 -197 -211 l-41 -11 -6 -80 c-3 -44 -8 -82 -12 -86 -10 -10 -139 -14
-153 -4 -10 7 -15 45 -19 129 -7 139 0 153 70 153 60 0 108 28 135 81 20 37
23 55 19 108 -5 67 -21 98 -71 135 -41 31 -161 29 -234 -4 -66 -29 -73 -22
-70 64 3 56 5 61 37 80 90 52 274 59 372 14z m-2040 -58 c18 -10 19 -23 19
-195 l0 -185 185 0 185 0 0 185 0 185 26 10 c14 6 49 10 79 10 30 0 65 -4 79
-10 l26 -10 0 -485 0 -485 -26 -10 c-14 -6 -49 -10 -79 -10 -30 0 -65 4 -79
10 l-26 10 0 210 0 210 -185 0 -185 0 0 -210 0 -210 -26 -10 c-14 -6 -49 -10
-79 -10 -30 0 -65 4 -79 10 l-26 10 0 485 0 486 23 9 c31 12 144 12 168 0z
m928 -7 c19 -16 150 -286 182 -375 7 -21 16 -38 19 -38 3 0 12 17 19 38 8 20
50 114 93 209 89 190 81 183 190 183 76 0 98 -6 98 -27 0 -8 -67 -146 -150
-307 l-150 -293 0 -182 0 -181 -26 -10 c-33 -13 -125 -13 -158 0 l-26 10 0
181 0 182 -150 293 c-82 161 -150 299 -150 308 0 21 15 24 106 25 64 1 86 -3
103 -16z m1014 -794 c32 -14 47 -49 47 -104 0 -82 -32 -115 -110 -115 -78 0
-110 33 -110 115 0 54 15 90 44 103 28 14 99 15 129 1z"/>
</g>
</svg>
