<?xml version="1.0" standalone="no"?>
<!DOCTYPE svg PUBLIC "-//W3C//DTD SVG 20010904//EN"
 "http://www.w3.org/TR/2001/REC-SVG-20010904/DTD/svg10.dtd">
<svg version="1.0" xmlns="http://www.w3.org/2000/svg"
 width="286.000000pt" height="286.000000pt" viewBox="0 0 286.000000 286.000000"
 preserveAspectRatio="xMidYMid meet">
<metadata>
Created by potrace 1.13, written by Peter Selinger 2001-2015
</metadata>
<g transform="translate(0.000000,286.000000) scale(0.100000,-0.100000)"
fill="#000000" stroke="none">
<path d="M10 1425 l0 -1415 1420 0 1420 0 0 1415 0 1415 -1420 0 -1420 0 0
-1415z m2810 0 l0 -1395 -1390 0 -1390 0 0 1395 0 1395 1390 0 1390 0 0 -1395z"/>
<path d="M301 2071 c-8 -5 -18 -33 -22 -63 -4 -29 -8 -360 -8 -736 l-1 -682
23 -9 c12 -5 32 -11 45 -15 l22 -7 0 760 0 761 -22 0 c-13 0 -29 -4 -37 -9z"/>
<path d="M530 1488 c1 -616 10 -888 30 -914 7 -7 23 -14 36 -14 l24 0 -2 739
c-3 711 -4 740 -22 760 -11 12 -30 21 -43 21 l-23 0 0 -592z"/>
<path d="M786 1573 c6 -601 18 -947 33 -986 9 -23 16 -28 39 -25 l27 3 -2 625
c-2 344 -6 685 -9 758 l-6 132 -44 0 -44 0 6 -507z"/>
<path d="M1080 1673 c0 -225 3 -560 7 -747 l6 -338 33 -14 c18 -8 36 -14 39
-14 3 0 5 342 5 760 l0 760 -45 0 -45 0 0 -407z"/>
<path d="M1372 1347 c3 -682 4 -735 21 -760 11 -17 26 -27 42 -27 l25 0 0 760
0 760 -45 0 -46 0 3 -733z"/>
<path d="M1696 2058 c-14 -20 -16 -109 -16 -760 0 -406 2 -738 5 -738 3 0 21
6 39 14 l33 14 6 338 c4 187 7 522 7 747 l0 407 -29 0 c-20 0 -35 -8 -45 -22z"/>
<path d="M1960 1808 c0 -150 3 -486 7 -746 l6 -473 35 -15 c19 -7 36 -14 38
-14 2 0 4 342 4 760 l0 760 -45 0 -45 0 0 -272z"/>
<path d="M2214 1738 c3 -189 9 -521 12 -738 5 -325 8 -399 20 -418 21 -32 55
-26 66 13 9 31 2 1144 -8 1363 l-6 122 -45 0 -45 0 6 -342z"/>
<path d="M2492 1347 c3 -682 4 -735 21 -760 11 -17 26 -27 42 -27 l25 0 0 760
0 760 -45 0 -46 0 3 -733z"/>
</g>
</svg>
