<?xml version="1.0" standalone="no"?>
<!DOCTYPE svg PUBLIC "-//W3C//DTD SVG 20010904//EN"
 "http://www.w3.org/TR/2001/REC-SVG-20010904/DTD/svg10.dtd">
<svg version="1.0" xmlns="http://www.w3.org/2000/svg"
 width="286.000000pt" height="293.000000pt" viewBox="0 0 286.000000 293.000000"
 preserveAspectRatio="xMidYMid meet">
<metadata>
Created by potrace 1.13, written by Peter Selinger 2001-2015
</metadata>
<g transform="translate(0.000000,293.000000) scale(0.100000,-0.100000)"
fill="#000000" stroke="none">
<path d="M20 1505 l0 -1415 1415 0 1415 0 0 1415 0 1415 -1415 0 -1415 0 0
-1415z m2800 0 l0 -1395 -1390 0 -1390 0 0 1395 0 1395 1390 0 1390 0 0 -1395z"/>
<path d="M682 2740 c-28 -13 -56 -40 -95 -92 -87 -119 -352 -510 -365 -541
-20 -47 -15 -122 13 -177 14 -28 32 -50 40 -50 12 0 82 96 327 447 52 74 77
89 117 68 32 -16 41 -33 41 -79 0 -26 -35 -83 -164 -272 -91 -131 -171 -251
-180 -265 -15 -25 -14 -27 53 -93 l68 -68 45 59 c24 32 98 136 163 232 145
211 184 256 217 246 28 -8 56 -39 64 -71 8 -30 -12 -63 -213 -358 l-152 -223
70 -68 c69 -67 71 -68 89 -49 10 10 82 111 161 224 188 271 203 290 239 290
35 0 70 -41 70 -82 0 -30 -31 -79 -226 -363 -49 -71 -100 -147 -113 -169 l-24
-39 63 -61 63 -60 27 32 c14 18 49 65 76 105 85 126 246 351 267 375 28 31 70
29 96 -4 44 -56 42 -58 -276 -521 -35 -51 -63 -96 -63 -102 0 -15 121 -122
136 -119 7 2 94 118 192 258 172 246 179 255 214 258 29 2 40 -2 57 -24 43
-55 40 -61 -252 -486 -48 -69 -87 -131 -87 -136 0 -6 27 -33 60 -62 51 -44 63
-50 76 -39 8 7 77 101 152 208 187 269 211 300 239 307 35 9 83 -38 83 -81 0
-32 -18 -60 -274 -435 l-88 -129 27 -33 c15 -18 48 -51 73 -73 l45 -39 23 29
c13 17 80 111 149 210 145 209 194 274 216 288 25 16 67 0 84 -33 29 -56 44
-29 -250 -459 -107 -157 -108 -161 -44 -194 40 -21 115 -19 151 5 24 16 76 87
261 352 159 230 187 282 187 343 0 95 -15 115 -238 330 -114 109 -270 259
-347 333 -416 402 -1133 1084 -1182 1124 -45 38 -111 48 -161 26z"/>
</g>
</svg>
