<?xml version="1.0" standalone="no"?>
<!DOCTYPE svg PUBLIC "-//W3C//DTD SVG 20010904//EN"
 "http://www.w3.org/TR/2001/REC-SVG-20010904/DTD/svg10.dtd">
<svg version="1.0" xmlns="http://www.w3.org/2000/svg"
 width="286.000000pt" height="286.000000pt" viewBox="0 0 286.000000 286.000000"
 preserveAspectRatio="xMidYMid meet">
<metadata>
Created by potrace 1.13, written by Peter Selinger 2001-2015
</metadata>
<g transform="translate(0.000000,286.000000) scale(0.100000,-0.100000)"
fill="#000000" stroke="none">
<path d="M20 1425 l0 -1415 1415 0 1415 0 0 1415 0 1415 -1415 0 -1415 0 0
-1415z m2810 0 l0 -1395 -1395 0 -1395 0 0 1395 0 1395 1395 0 1395 0 0 -1395z"/>
<path d="M1257 2370 c-85 -15 -189 -50 -271 -91 -589 -293 -704 -1064 -226
-1512 366 -342 956 -346 1322 -7 276 253 375 636 257 982 -100 292 -335 512
-646 604 -74 22 -112 27 -238 30 -82 1 -172 -1 -198 -6z m473 -509 c13 -25 13
-107 0 -132 -10 -18 -23 -19 -180 -19 l-170 0 0 -135 0 -135 160 0 c180 0 180
0 180 -80 0 -80 0 -80 -180 -80 l-160 0 0 -195 0 -195 -26 -10 c-33 -13 -125
-13 -158 0 l-26 10 0 476 c0 430 2 479 17 496 15 17 37 18 274 18 245 0 259
-1 269 -19z"/>
</g>
</svg>
