<?xml version="1.0" standalone="no"?>
<!DOCTYPE svg PUBLIC "-//W3C//DTD SVG 20010904//EN"
 "http://www.w3.org/TR/2001/REC-SVG-20010904/DTD/svg10.dtd">
<svg version="1.0" xmlns="http://www.w3.org/2000/svg"
 width="286.000000pt" height="286.000000pt" viewBox="0 0 286.000000 286.000000"
 preserveAspectRatio="xMidYMid meet">
<metadata>
Created by potrace 1.13, written by Peter Selinger 2001-2015
</metadata>
<g transform="translate(0.000000,286.000000) scale(0.100000,-0.100000)"
fill="#000000" stroke="none">
<path d="M20 1430 l0 -1420 1415 0 1415 0 0 1420 0 1420 -1415 0 -1415 0 0
-1420z m2810 0 l0 -1390 -1395 0 -1395 0 0 1390 0 1390 1395 0 1395 0 0 -1390z"/>
<path d="M1245 2294 c-160 -26 -296 -77 -420 -159 -395 -262 -534 -769 -325
-1185 124 -247 343 -424 616 -497 86 -23 119 -27 249 -27 133 0 161 3 250 27
438 119 732 508 712 942 -24 499 -423 885 -932 900 -66 2 -133 1 -150 -1z
m495 -513 c5 -11 10 -41 10 -66 0 -84 -2 -85 -150 -85 l-130 0 0 -410 0 -410
-26 -10 c-14 -6 -49 -10 -79 -10 -30 0 -65 4 -79 10 l-26 10 0 410 0 410 -130
0 c-148 0 -150 1 -150 85 0 91 -28 85 385 85 350 0 365 -1 375 -19z"/>
</g>
</svg>
