<?xml version="1.0" standalone="no"?>
<!DOCTYPE svg PUBLIC "-//W3C//DTD SVG 20010904//EN"
 "http://www.w3.org/TR/2001/REC-SVG-20010904/DTD/svg10.dtd">
<svg version="1.0" xmlns="http://www.w3.org/2000/svg"
 width="286.000000pt" height="286.000000pt" viewBox="0 0 286.000000 286.000000"
 preserveAspectRatio="xMidYMid meet">
<metadata>
Created by potrace 1.13, written by Peter Selinger 2001-2015
</metadata>
<g transform="translate(0.000000,286.000000) scale(0.100000,-0.100000)"
fill="#000000" stroke="none">
<path d="M20 1430 l0 -1420 1415 0 1415 0 0 1420 0 1420 -1415 0 -1415 0 0
-1420z m2810 0 l0 -1390 -1395 0 -1395 0 0 1390 0 1390 1395 0 1395 0 0 -1390z"/>
<path d="M1129 2641 c-23 -18 -24 -25 -23 -128 1 -168 47 -323 139 -468 39
-60 185 -214 239 -252 l29 -20 -17 -139 c-9 -76 -20 -155 -24 -174 -8 -35 -8
-35 -21 25 -72 321 -315 660 -590 825 -93 55 -119 60 -147 29 -17 -19 -19 -37
-18 -163 1 -273 74 -504 235 -747 84 -124 228 -268 352 -349 56 -37 97 -70 96
-79 0 -9 -19 -79 -43 -156 l-42 -140 -373 -5 -373 -5 -28 -33 c-45 -54 -65
-132 -65 -252 0 -128 20 -203 69 -254 l33 -36 847 0 846 0 -20 40 c-67 131
-67 369 0 500 l20 40 -420 0 c-231 0 -420 3 -420 7 0 3 7 29 16 58 l17 51 96
29 c443 133 811 536 905 990 20 97 9 121 -57 118 -97 -3 -280 -79 -431 -180
-109 -73 -258 -213 -331 -313 l-48 -65 6 39 c3 21 14 98 23 170 l17 131 60 35
c77 45 196 155 253 236 103 144 165 333 167 504 1 149 -23 172 -125 118 -74
-39 -227 -185 -279 -267 l-34 -54 -2 109 c-2 60 -5 119 -8 132 -8 32 -51 47
-81 27 -22 -14 -24 -22 -26 -143 l-3 -127 -39 60 c-55 83 -189 213 -266 258
-74 43 -80 44 -111 18z m191 -229 c130 -133 197 -276 225 -480 5 -42 5 -43
-17 -31 -67 36 -196 198 -243 304 -46 104 -86 295 -61 295 5 0 48 -40 96 -88z
m651 -65 c-31 -123 -101 -254 -183 -343 -39 -41 -84 -84 -100 -96 l-31 -21 7
59 c23 195 134 407 269 515 l52 41 3 -36 c2 -20 -6 -74 -17 -119z m-1090 -184
c35 -25 96 -79 135 -119 213 -216 334 -488 360 -809 l7 -89 -29 19 c-166 107
-327 291 -422 480 -43 86 -89 221 -106 312 -20 110 -31 253 -18 253 5 0 38
-21 73 -47z m1443 -360 c-43 -179 -159 -379 -308 -531 -140 -144 -275 -235
-438 -296 -80 -30 -80 -31 -43 80 110 327 387 618 709 745 39 16 74 28 79 29
4 0 4 -12 1 -27z"/>
<path d="M2334 675 c-62 -62 -96 -214 -76 -341 20 -125 70 -214 121 -214 25 0
66 47 93 105 20 44 23 65 23 185 0 121 -3 141 -24 188 -24 53 -70 102 -97 102
-8 0 -26 -11 -40 -25z"/>
</g>
</svg>
