<?xml version="1.0" standalone="no"?>
<!DOCTYPE svg PUBLIC "-//W3C//DTD SVG 20010904//EN"
 "http://www.w3.org/TR/2001/REC-SVG-20010904/DTD/svg10.dtd">
<svg version="1.0" xmlns="http://www.w3.org/2000/svg"
 width="286.000000pt" height="286.000000pt" viewBox="0 0 286.000000 286.000000"
 preserveAspectRatio="xMidYMid meet">
<metadata>
Created by potrace 1.13, written by Peter Selinger 2001-2015
</metadata>
<g transform="translate(0.000000,286.000000) scale(0.100000,-0.100000)"
fill="#000000" stroke="none">
<path d="M10 1430 l0 -1420 1415 0 1415 0 0 1420 0 1420 -1415 0 -1415 0 0
-1420z m2810 0 l0 -1390 -1395 0 -1395 0 0 1390 0 1390 1395 0 1395 0 0 -1390z"/>
<path d="M1301 2379 c-375 -46 -686 -298 -800 -646 -72 -220 -58 -463 39 -670
124 -266 347 -449 645 -528 85 -23 286 -31 382 -15 257 41 482 177 638 384 52
70 110 190 142 293 24 79 27 104 27 243 1 121 -3 170 -18 223 -42 156 -103
274 -204 390 -201 235 -540 364 -851 326z m-167 -504 c17 -8 36 -23 43 -33 6
-10 64 -160 128 -333 65 -173 120 -317 124 -321 3 -4 62 138 131 315 79 204
135 333 152 352 26 30 28 30 142 33 112 4 116 3 141 -22 l25 -25 0 -470 c0
-538 9 -491 -97 -491 -100 0 -93 -33 -95 433 l-3 408 -149 -408 c-82 -224
-156 -414 -164 -420 -18 -15 -129 -17 -164 -4 -21 8 -43 63 -168 421 l-145
411 -3 -408 c-2 -466 5 -433 -95 -433 -106 0 -97 -47 -97 491 l0 470 25 24
c23 23 31 25 131 25 73 0 116 -5 138 -15z"/>
</g>
</svg>
