<?xml version="1.0" standalone="no"?>
<!DOCTYPE svg PUBLIC "-//W3C//DTD SVG 20010904//EN"
 "http://www.w3.org/TR/2001/REC-SVG-20010904/DTD/svg10.dtd">
<svg version="1.0" xmlns="http://www.w3.org/2000/svg"
 width="286.000000pt" height="286.000000pt" viewBox="0 0 286.000000 286.000000"
 preserveAspectRatio="xMidYMid meet">
<metadata>
Created by potrace 1.13, written by Peter Selinger 2001-2015
</metadata>
<g transform="translate(0.000000,286.000000) scale(0.100000,-0.100000)"
fill="#000000" stroke="none">
<path d="M20 1425 l0 -1415 1415 0 1415 0 0 1415 0 1415 -1415 0 -1415 0 0
-1415z m2810 0 l0 -1395 -1395 0 -1395 0 0 1395 0 1395 1395 0 1395 0 0 -1395z"/>
<path d="M1231 2365 c-381 -83 -667 -361 -749 -730 -20 -92 -20 -288 0 -380
76 -341 328 -608 673 -711 108 -32 319 -44 431 -25 314 55 574 247 710 526 70
145 88 224 88 400 0 176 -18 255 -88 400 -132 271 -376 457 -680 519 -93 20
-296 20 -385 1z m-53 -503 c9 -9 69 -188 137 -406 65 -213 121 -384 122 -379
2 4 57 181 123 393 74 239 126 390 137 398 25 18 157 16 173 -3 10 -13 -16
-99 -149 -493 -94 -279 -168 -482 -178 -489 -11 -9 -53 -13 -118 -13 -65 0
-107 4 -118 13 -10 7 -82 206 -179 491 -186 551 -182 506 -46 506 61 0 82 -4
96 -18z"/>
</g>
</svg>
