<?xml version="1.0" standalone="no"?>
<!DOCTYPE svg PUBLIC "-//W3C//DTD SVG 20010904//EN"
 "http://www.w3.org/TR/2001/REC-SVG-20010904/DTD/svg10.dtd">
<svg version="1.0" xmlns="http://www.w3.org/2000/svg"
 width="291.000000pt" height="286.000000pt" viewBox="0 0 291.000000 286.000000"
 preserveAspectRatio="xMidYMid meet">
<metadata>
Created by potrace 1.13, written by Peter Selinger 2001-2015
</metadata>
<g transform="translate(0.000000,286.000000) scale(0.100000,-0.100000)"
fill="#888888" stroke="none">
<path d="M10 1430 l0 -1420 1420 0 1420 0 0 1420 0 1420 -1420 0 -1420 0 0
-1420z m2461 398 c30 -14 68 -37 86 -52 71 -60 108 -201 84 -316 -22 -102
-101 -187 -197 -211 l-41 -11 -6 -80 c-3 -44 -8 -82 -12 -86 -10 -10 -139 -14
-153 -4 -10 7 -15 45 -19 129 -7 139 0 153 70 153 60 0 108 28 135 81 20 37
23 55 19 108 -5 67 -21 98 -71 135 -41 31 -161 29 -234 -4 -66 -29 -73 -22
-70 64 3 56 5 61 37 80 90 52 274 59 372 14z m-2003 -66 c9 -9 69 -188 137
-406 65 -213 121 -384 122 -379 2 4 57 181 123 393 74 239 126 390 137 398 25
18 157 16 173 -3 10 -13 -16 -99 -149 -493 -94 -279 -168 -482 -178 -489 -11
-9 -53 -13 -118 -13 -65 0 -107 4 -118 13 -10 7 -82 206 -179 491 -186 551
-182 506 -46 506 61 0 82 -4 96 -18z m1422 -1 c13 -25 13 -97 0 -122 -10 -18
-23 -19 -200 -19 l-190 0 0 -120 0 -120 160 0 c180 0 180 0 180 -80 0 -80 0
-80 -180 -80 l-160 0 0 -145 0 -145 190 0 c214 0 210 1 210 -80 0 -84 14 -80
-292 -80 -239 0 -274 2 -290 17 -17 15 -18 43 -18 486 0 424 2 472 17 489 15
17 37 18 289 18 260 0 274 -1 284 -19z m483 -792 c32 -14 47 -49 47 -104 0
-82 -32 -115 -110 -115 -78 0 -110 33 -110 115 0 54 15 90 44 103 28 14 99 15
129 1z"/>
</g>
</svg>
