<?xml version="1.0" standalone="no"?>
<!DOCTYPE svg PUBLIC "-//W3C//DTD SVG 20010904//EN"
 "http://www.w3.org/TR/2001/REC-SVG-20010904/DTD/svg10.dtd">
<svg version="1.0" xmlns="http://www.w3.org/2000/svg"
 width="285.000000pt" height="286.000000pt" viewBox="0 0 285.000000 286.000000"
 preserveAspectRatio="xMidYMid meet">
<metadata>
Created by potrace 1.13, written by Peter Selinger 2001-2015
</metadata>
<g transform="translate(0.000000,286.000000) scale(0.100000,-0.100000)"
fill="#000000" stroke="none">
<path d="M10 1430 l0 -1420 1415 0 1415 0 0 1420 0 1420 -1415 0 -1415 0 0
-1420z m2810 0 l0 -1390 -1395 0 -1395 0 0 1390 0 1390 1395 0 1395 0 0 -1390z"/>
<path d="M1267 1802 l-907 -907 145 -145 145 -145 910 910 910 910 -142 142
c-79 79 -145 143 -148 143 -3 0 -413 -408 -913 -908z"/>
<path d="M607 2492 l-157 -157 328 -328 327 -327 160 160 160 160 -325 325
c-179 179 -327 325 -330 325 -3 0 -76 -71 -163 -158z"/>
<path d="M1595 1510 l-160 -160 343 -343 342 -342 160 160 160 160 -343 343
-342 342 -160 -160z"/>
<path d="M1298 862 c-47 -30 -58 -42 -58 -64 0 -34 16 -36 64 -7 l36 21 0
-150 0 -151 -47 -3 c-46 -3 -48 -4 -48 -33 l0 -30 135 0 135 0 0 30 c0 28 -3
30 -42 33 l-43 3 0 195 0 194 -37 0 c-27 0 -55 -11 -95 -38z"/>
</g>
</svg>
