<?xml version="1.0" standalone="no"?>
<!DOCTYPE svg PUBLIC "-//W3C//DTD SVG 20010904//EN"
 "http://www.w3.org/TR/2001/REC-SVG-20010904/DTD/svg10.dtd">
<svg version="1.0" xmlns="http://www.w3.org/2000/svg"
 width="286.000000pt" height="286.000000pt" viewBox="0 0 286.000000 286.000000"
 preserveAspectRatio="xMidYMid meet">
<metadata>
Created by potrace 1.13, written by Peter Selinger 2001-2015
</metadata>
<g transform="translate(0.000000,286.000000) scale(0.100000,-0.100000)"
fill="#000000" stroke="none">
<path d="M10 1430 l0 -1420 1415 0 1415 0 0 1420 0 1420 -1415 0 -1415 0 0
-1420z m2810 0 l0 -1390 -1390 0 -1390 0 0 1390 0 1390 1390 0 1390 0 0 -1390z"/>
<path d="M1385 1760 l-910 -910 148 -147 147 -148 910 910 910 910 -148 148
-147 147 -910 -910z"/>
<path d="M727 2442 l-157 -157 328 -328 327 -327 160 160 160 160 -325 325
c-179 179 -327 325 -330 325 -3 0 -76 -71 -163 -158z"/>
<path d="M1707 1462 l-157 -157 343 -343 342 -342 160 160 160 160 -340 340
c-187 187 -342 340 -345 340 -3 0 -76 -71 -163 -158z"/>
<path d="M1429 931 c-55 -17 -69 -30 -69 -66 0 -38 10 -43 50 -20 35 20 84 19
103 -3 41 -45 14 -105 -100 -225 -58 -62 -64 -72 -61 -105 l3 -37 150 0 150 0
0 35 0 35 -98 3 -99 3 74 77 c40 42 81 93 91 114 35 74 15 153 -47 182 -35 17
-103 20 -147 7z"/>
</g>
</svg>
