<?xml version="1.0" standalone="no"?>
<!DOCTYPE svg PUBLIC "-//W3C//DTD SVG 20010904//EN"
 "http://www.w3.org/TR/2001/REC-SVG-20010904/DTD/svg10.dtd">
<svg version="1.0" xmlns="http://www.w3.org/2000/svg"
 width="286.000000pt" height="286.000000pt" viewBox="0 0 286.000000 286.000000"
 preserveAspectRatio="xMidYMid meet">
<metadata>
Created by potrace 1.13, written by Peter Selinger 2001-2015
</metadata>
<g transform="translate(0.000000,286.000000) scale(0.100000,-0.100000)"
fill="#000000" stroke="none">
<path d="M10 1430 l0 -1420 1415 0 1415 0 0 1420 0 1420 -1415 0 -1415 0 0
-1420z m2810 0 l0 -1390 -1395 0 -1395 0 0 1390 0 1390 1395 0 1395 0 0 -1390z"/>
<path d="M1432 1657 l-912 -912 148 -148 147 -147 913 913 912 912 -148 148
-147 147 -913 -913z"/>
<path d="M775 2340 l-160 -160 328 -328 327 -327 162 163 163 162 -325 325
c-179 179 -327 325 -330 325 -3 0 -77 -72 -165 -160z"/>
<path d="M1755 1360 l-160 -160 343 -343 342 -342 162 163 163 162 -340 340
c-187 187 -342 340 -345 340 -3 0 -77 -72 -165 -160z"/>
<path d="M1520 928 c-38 -19 -46 -28 -48 -55 -4 -39 -3 -39 48 -13 47 24 78
25 108 4 31 -22 29 -67 -4 -93 -19 -15 -41 -21 -76 -21 l-49 0 3 -32 c3 -32 4
-33 63 -39 64 -7 95 -31 95 -74 0 -64 -77 -80 -183 -39 -16 6 -18 2 -15 -32 3
-36 7 -40 43 -52 50 -17 149 -11 193 12 95 49 94 180 -2 222 -17 7 -24 13 -15
14 26 0 60 46 66 87 15 110 -110 170 -227 111z"/>
</g>
</svg>
