<?xml version="1.0" standalone="no"?>
<!DOCTYPE svg PUBLIC "-//W3C//DTD SVG 20010904//EN"
 "http://www.w3.org/TR/2001/REC-SVG-20010904/DTD/svg10.dtd">
<svg version="1.0" xmlns="http://www.w3.org/2000/svg"
 width="286.000000pt" height="286.000000pt" viewBox="0 0 286.000000 286.000000"
 preserveAspectRatio="xMidYMid meet">
<metadata>
Created by potrace 1.13, written by Peter Selinger 2001-2015
</metadata>
<g transform="translate(0.000000,286.000000) scale(0.100000,-0.100000)"
fill="#000000" stroke="none">
<path d="M20 1435 l0 -1415 1415 0 1415 0 0 1415 0 1415 -1415 0 -1415 0 0
-1415z m2810 0 l0 -1395 -1395 0 -1395 0 0 1395 0 1395 1395 0 1395 0 0 -1395z"/>
<path d="M1250 2499 c-435 -44 -813 -295 -981 -653 -69 -147 -84 -219 -84
-401 0 -134 4 -173 22 -241 95 -348 373 -627 749 -754 157 -54 233 -65 434
-65 197 0 259 9 425 62 405 129 714 466 775 845 17 106 8 292 -19 393 -63 231
-233 461 -443 600 -189 126 -385 193 -623 215 -122 11 -133 11 -255 -1z m443
-113 c329 -87 590 -294 716 -568 48 -103 68 -179 80 -291 25 -247 -62 -505
-233 -694 l-47 -52 -784 692 -785 692 26 21 c45 37 180 114 254 144 174 72
282 90 505 85 143 -3 186 -8 268 -29z m-334 -980 c430 -378 781 -690 781 -691
0 -12 -222 -137 -296 -167 -426 -171 -935 -82 -1253 218 -380 358 -410 887
-72 1282 25 29 48 51 52 50 4 -2 359 -313 788 -692z"/>
<path d="M1209 2237 c-62 -23 -108 -66 -137 -127 -26 -57 -28 -58 -75 -64 -50
-7 -97 -24 -97 -36 0 -4 165 -153 368 -331 202 -178 424 -375 494 -437 l128
-113 29 46 c16 25 32 61 35 80 4 19 13 35 20 35 22 0 96 71 118 114 33 61 31
156 -3 217 -24 42 -26 55 -21 118 4 62 2 77 -23 126 -31 64 -86 110 -152 128
-26 7 -45 18 -49 30 -10 31 -65 87 -106 108 -57 29 -127 35 -188 15 l-50 -16
-32 35 c-17 20 -49 45 -71 57 -51 25 -140 33 -188 15z"/>
<path d="M780 1824 c0 -18 -14 -42 -44 -74 -92 -98 -97 -236 -13 -328 12 -13
27 -50 34 -83 22 -109 86 -177 188 -200 44 -10 64 -9 107 2 53 14 53 14 124
-21 43 -21 74 -43 78 -55 3 -11 6 -74 6 -140 0 -107 -18 -230 -46 -317 -5 -17
6 -18 140 -18 80 0 146 3 146 8 0 4 -9 50 -20 102 -22 107 -25 172 -10 251 9
45 19 62 60 104 l49 49 37 -17 c20 -10 38 -16 40 -14 3 3 -56 57 -140 127
l-31 25 23 -39 c25 -43 21 -56 -29 -82 -55 -28 -62 -21 -56 49 4 34 9 74 13
88 5 23 -13 42 -203 210 -114 101 -263 232 -330 292 -114 101 -123 107 -123
81z"/>
</g>
</svg>
