<?xml version="1.0" standalone="no"?>
<!DOCTYPE svg PUBLIC "-//W3C//DTD SVG 20010904//EN"
 "http://www.w3.org/TR/2001/REC-SVG-20010904/DTD/svg10.dtd">
<svg version="1.0" xmlns="http://www.w3.org/2000/svg"
 width="286.000000pt" height="286.000000pt" viewBox="0 0 286.000000 286.000000"
 preserveAspectRatio="xMidYMid meet">
<metadata>
Created by potrace 1.13, written by Peter Selinger 2001-2015
</metadata>
<g transform="translate(0.000000,286.000000) scale(0.100000,-0.100000)"
fill="#000000" stroke="none">
<path d="M10 1430 l0 -1420 1415 0 1415 0 0 1420 0 1420 -1415 0 -1415 0 0
-1420z m2810 0 l0 -1390 -1395 0 -1395 0 0 1390 0 1390 1395 0 1395 0 0 -1390z"/>
<path d="M655 2620 c-11 -12 -24 -55 -34 -113 -14 -80 -16 -232 -16 -1181 l0
-1089 60 -15 c47 -12 132 -16 400 -16 494 -1 662 21 855 112 116 54 205 117
264 184 52 59 110 175 120 238 4 24 11 50 17 56 14 18 5 236 -13 309 -44 176
-152 307 -328 396 -55 28 -81 49 -74 61 3 4 26 19 52 32 62 32 142 117 176
190 15 32 35 100 44 152 33 190 -17 357 -149 498 -79 85 -149 125 -264 154
-172 43 -208 46 -656 49 -427 3 -436 3 -454 -17z m857 -354 c67 -25 166 -133
192 -209 38 -111 5 -218 -97 -318 -83 -80 -126 -91 -352 -87 l-170 3 -3 305
c-1 168 0 311 3 318 8 22 364 11 427 -12z m-50 -997 c129 -13 194 -35 256 -86
82 -67 126 -167 125 -288 -1 -197 -99 -281 -376 -320 -127 -18 -358 -20 -375
-3 -14 14 -18 698 -4 713 8 9 216 0 374 -16z"/>
</g>
</svg>
