<?xml version="1.0" standalone="no"?>
<!DOCTYPE svg PUBLIC "-//W3C//DTD SVG 20010904//EN"
 "http://www.w3.org/TR/2001/REC-SVG-20010904/DTD/svg10.dtd">
<svg version="1.0" xmlns="http://www.w3.org/2000/svg"
 width="285.000000pt" height="286.000000pt" viewBox="0 0 285.000000 286.000000"
 preserveAspectRatio="xMidYMid meet">
<metadata>
Created by potrace 1.13, written by Peter Selinger 2001-2015
</metadata>
<g transform="translate(0.000000,286.000000) scale(0.100000,-0.100000)"
fill="#000000" stroke="none">
<path d="M10 1435 l0 -1415 1415 0 1415 0 0 1415 0 1415 -1415 0 -1415 0 0
-1415z m2810 0 l0 -1395 -1395 0 -1395 0 0 1395 0 1395 1395 0 1395 0 0 -1395z"/>
<path d="M463 2701 c-51 -4 -97 -11 -102 -16 -24 -24 -33 -354 -38 -1367 l-5
-1058 331 0 331 0 0 491 0 491 168 -4 c195 -6 254 -22 365 -102 126 -89 225
-227 439 -611 l134 -240 139 -8 c77 -4 222 -6 322 -5 216 4 225 7 204 80 -31
100 -145 302 -312 549 -151 222 -241 325 -354 405 -52 38 -95 71 -95 74 0 3
28 16 63 29 204 77 278 122 379 229 173 184 215 439 105 646 -43 82 -173 212
-258 260 -126 69 -300 114 -534 136 -262 24 -1033 37 -1282 21z m903 -361
c175 -14 287 -36 361 -70 268 -124 262 -405 -11 -574 -121 -75 -151 -81 -461
-81 l-270 0 -3 355 c-1 195 0 361 3 367 6 16 196 17 381 3z"/>
</g>
</svg>
